<svg width="73" height="82" viewBox="0 0 73 82" fill="none" xmlns="http://www.w3.org/2000/svg">
<g filter="url(#filter0_dd_752_55245)">
<mask id="path-1-inside-1_752_55245" fill="white">
<path fill-rule="evenodd" clip-rule="evenodd" d="M26.9525 14.1321C22.7991 15.9781 19.4781 19.2991 17.6321 23.4525C16.8816 25.1411 16.3814 26.9323 16.2237 28.7735C16.1081 30.1235 16 31.7258 16 33C16 34.2741 16.1081 35.8764 16.2237 37.2264C16.3814 39.0676 16.8816 40.8588 17.6321 42.5474C19.4781 46.7008 22.7992 50.0218 26.9526 51.8678C28.6411 52.6183 30.4323 53.1185 32.2733 53.2762C32.3424 53.2822 32.4121 53.2881 32.4825 53.2939L35.5695 61.1362C35.9022 61.9812 37.0979 61.9812 37.4305 61.1362L40.5177 53.2939C40.5879 53.2881 40.6576 53.2822 40.7266 53.2762C42.5676 53.1185 44.3587 52.6183 46.0472 51.8678C50.2007 50.0218 53.5218 46.7007 55.3678 42.5472C56.1183 40.8587 56.6185 39.0676 56.7762 37.2266C56.8919 35.8765 57 34.2741 57 33C57 31.7258 56.8919 30.1234 56.7762 28.7733C56.6185 26.9323 56.1183 25.1411 55.3678 23.4526C53.5219 19.2992 50.2008 15.9781 46.0474 14.1321C44.3588 13.3816 42.5676 12.8814 40.7264 12.7237C39.3764 12.6081 37.7741 12.5 36.5 12.5C35.2258 12.5 33.6235 12.6081 32.2735 12.7237C30.4323 12.8814 28.6411 13.3816 26.9525 14.1321Z"/>
</mask>
<path fill-rule="evenodd" clip-rule="evenodd" d="M26.9525 14.1321C22.7991 15.9781 19.4781 19.2991 17.6321 23.4525C16.8816 25.1411 16.3814 26.9323 16.2237 28.7735C16.1081 30.1235 16 31.7258 16 33C16 34.2741 16.1081 35.8764 16.2237 37.2264C16.3814 39.0676 16.8816 40.8588 17.6321 42.5474C19.4781 46.7008 22.7992 50.0218 26.9526 51.8678C28.6411 52.6183 30.4323 53.1185 32.2733 53.2762C32.3424 53.2822 32.4121 53.2881 32.4825 53.2939L35.5695 61.1362C35.9022 61.9812 37.0979 61.9812 37.4305 61.1362L40.5177 53.2939C40.5879 53.2881 40.6576 53.2822 40.7266 53.2762C42.5676 53.1185 44.3587 52.6183 46.0472 51.8678C50.2007 50.0218 53.5218 46.7007 55.3678 42.5472C56.1183 40.8587 56.6185 39.0676 56.7762 37.2266C56.8919 35.8765 57 34.2741 57 33C57 31.7258 56.8919 30.1234 56.7762 28.7733C56.6185 26.9323 56.1183 25.1411 55.3678 23.4526C53.5219 19.2992 50.2008 15.9781 46.0474 14.1321C44.3588 13.3816 42.5676 12.8814 40.7264 12.7237C39.3764 12.6081 37.7741 12.5 36.5 12.5C35.2258 12.5 33.6235 12.6081 32.2735 12.7237C30.4323 12.8814 28.6411 13.3816 26.9525 14.1321Z" fill="white"/>
<path d="M17.6321 23.4525L16.7183 23.0464L17.6321 23.4525ZM26.9525 14.1321L27.3587 15.0459L26.9525 14.1321ZM16.2237 28.7735L17.22 28.8588L16.2237 28.7735ZM16.2237 37.2264L15.2273 37.3118L16.2237 37.2264ZM17.6321 42.5474L16.7183 42.9535L17.6321 42.5474ZM26.9526 51.8678L26.5465 52.7816H26.5465L26.9526 51.8678ZM32.2733 53.2762L32.3587 52.2799H32.3587L32.2733 53.2762ZM32.4825 53.2939L33.413 52.9276L33.1852 52.3491L32.5656 52.2974L32.4825 53.2939ZM35.5695 61.1362L36.5001 60.7699L36.5 60.7699L35.5695 61.1362ZM37.4305 61.1362L36.5 60.7699L36.5 60.7699L37.4305 61.1362ZM40.5177 53.2939L40.4345 52.2974L39.8149 52.3491L39.5872 52.9276L40.5177 53.2939ZM40.7266 53.2762L40.6412 52.2799L40.7266 53.2762ZM46.0472 51.8678L46.4534 52.7816L46.0472 51.8678ZM55.3678 42.5472L54.454 42.1411L55.3678 42.5472ZM56.7762 37.2266L55.7799 37.1412V37.1412L56.7762 37.2266ZM56.7762 28.7733L55.7799 28.8587V28.8587L56.7762 28.7733ZM55.3678 23.4526L56.2816 23.0465L55.3678 23.4526ZM46.0474 14.1321L45.6412 15.0459L45.6412 15.0459L46.0474 14.1321ZM40.7264 12.7237L40.6411 13.72L40.7264 12.7237ZM32.2735 12.7237L32.3588 13.72L32.2735 12.7237ZM18.5459 23.8587C20.2914 19.9315 23.4315 16.7914 27.3587 15.0459L26.5464 13.2183C22.1668 15.1648 18.6648 18.6668 16.7183 23.0464L18.5459 23.8587ZM17.22 28.8588C17.3671 27.142 17.8348 25.4589 18.5459 23.8587L16.7183 23.0464C15.9285 24.8234 15.3957 26.7227 15.2273 28.6881L17.22 28.8588ZM17 33C17 31.7701 17.105 30.2023 17.22 28.8588L15.2273 28.6881C15.1111 30.0446 15 31.6816 15 33H17ZM17.22 37.1411C17.105 35.7976 17 34.2298 17 33H15C15 34.3183 15.1111 35.9553 15.2273 37.3118L17.22 37.1411ZM18.5459 42.1412C17.8348 40.541 17.3671 38.8579 17.22 37.1411L15.2273 37.3118C15.3957 39.2772 15.9285 41.1765 16.7183 42.9535L18.5459 42.1412ZM27.3588 50.954C23.4316 49.2086 20.2914 46.0684 18.5459 42.1412L16.7183 42.9535C18.6648 47.3332 22.1669 50.8351 26.5465 52.7816L27.3588 50.954ZM32.3587 52.2799C30.6419 52.1328 28.9589 51.6652 27.3588 50.954L26.5465 52.7816C28.3234 53.5714 30.2226 54.1042 32.1879 54.2726L32.3587 52.2799ZM32.5656 52.2974C32.496 52.2916 32.427 52.2858 32.3587 52.2799L32.1879 54.2726C32.2578 54.2786 32.3283 54.2845 32.3993 54.2905L32.5656 52.2974ZM31.552 53.6602L34.639 61.5025L36.5 60.7699L33.413 52.9276L31.552 53.6602ZM34.639 61.5025C35.3043 63.1924 37.6958 63.1924 38.3611 61.5025L36.5 60.7699H36.5001L34.639 61.5025ZM38.361 61.5025L41.4482 53.6602L39.5872 52.9276L36.5 60.7699L38.361 61.5025ZM40.6412 52.2799C40.5729 52.2858 40.504 52.2916 40.4345 52.2974L40.6008 54.2905C40.6718 54.2845 40.7422 54.2786 40.812 54.2726L40.6412 52.2799ZM45.6411 50.954C44.041 51.6652 42.358 52.1328 40.6412 52.2799L40.812 54.2726C42.7773 54.1042 44.6765 53.5714 46.4534 52.7816L45.6411 50.954ZM54.454 42.1411C52.7086 46.0684 49.5684 49.2086 45.6411 50.954L46.4534 52.7816C50.8331 50.8351 54.3351 47.3331 56.2816 42.9534L54.454 42.1411ZM55.7799 37.1412C55.6328 38.858 55.1652 40.541 54.454 42.1411L56.2816 42.9534C57.0714 41.1765 57.6042 39.2773 57.7726 37.312L55.7799 37.1412ZM56 33C56 34.2299 55.895 35.7977 55.7799 37.1412L57.7726 37.312C57.8888 35.9554 58 34.3183 58 33H56ZM55.7799 28.8587C55.895 30.2022 56 31.77 56 33H58C58 31.6816 57.8888 30.0445 57.7726 28.6879L55.7799 28.8587ZM54.454 23.8588C55.1652 25.4589 55.6328 27.1419 55.7799 28.8587L57.7726 28.6879C57.6042 26.7226 57.0714 24.8234 56.2816 23.0465L54.454 23.8588ZM45.6412 15.0459C49.5684 16.7914 52.7086 19.9316 54.454 23.8588L56.2816 23.0465C54.3351 18.6669 50.8332 15.1648 46.4535 13.2183L45.6412 15.0459ZM40.6411 13.72C42.3579 13.8671 44.041 14.3348 45.6412 15.0459L46.4535 13.2183C44.6765 12.4285 42.7772 11.8957 40.8118 11.7273L40.6411 13.72ZM36.5 13.5C37.7298 13.5 39.2976 13.605 40.6411 13.72L40.8118 11.7273C39.4553 11.6111 37.8183 11.5 36.5 11.5V13.5ZM32.3588 13.72C33.7023 13.605 35.2701 13.5 36.5 13.5V11.5C35.1816 11.5 33.5446 11.6111 32.1881 11.7273L32.3588 13.72ZM27.3587 15.0459C28.9589 14.3348 30.642 13.8671 32.3588 13.72L32.1881 11.7273C30.2227 11.8957 28.3234 12.4285 26.5464 13.2183L27.3587 15.0459Z" fill="url(#paint0_linear_752_55245)" mask="url(#path-1-inside-1_752_55245)"/>
</g>
<defs>
<filter id="filter0_dd_752_55245" x="0" y="0" width="75" height="82" filterUnits="userSpaceOnUse" color-interpolation-filters="sRGB">
<feFlood flood-opacity="0" result="BackgroundImageFix"/>
<feColorMatrix in="SourceAlpha" type="matrix" values="0 0 0 0 0 0 0 0 0 0 0 0 0 0 0 0 0 0 127 0" result="hardAlpha"/>
<feOffset dy="4"/>
<feGaussianBlur stdDeviation="8"/>
<feColorMatrix type="matrix" values="0 0 0 0 0.2 0 0 0 0 0.2 0 0 0 0 0.2 0 0 0 0.08 0"/>
<feBlend mode="normal" in2="BackgroundImageFix" result="effect1_dropShadow_752_55245"/>
<feColorMatrix in="SourceAlpha" type="matrix" values="0 0 0 0 0 0 0 0 0 0 0 0 0 0 0 0 0 0 127 0" result="hardAlpha"/>
<feOffset dy="4"/>
<feGaussianBlur stdDeviation="2"/>
<feColorMatrix type="matrix" values="0 0 0 0 0.2 0 0 0 0 0.2 0 0 0 0 0.2 0 0 0 0.04 0"/>
<feBlend mode="normal" in2="effect1_dropShadow_752_55245" result="effect2_dropShadow_752_55245"/>
<feBlend mode="normal" in="SourceGraphic" in2="effect2_dropShadow_752_55245" result="shape"/>
</filter>
<linearGradient id="paint0_linear_752_55245" x1="17.627" y1="61.77" x2="68.833" y2="38.1139" gradientUnits="userSpaceOnUse">
<stop stop-color="#493289"/>
<stop offset="1" stop-color="#6A45C5"/>
</linearGradient>
</defs>
</svg>
