<svg width="64" height="60" viewBox="0 0 64 60" fill="none" xmlns="http://www.w3.org/2000/svg">
<g clip-path="url(#clip0_627_46068)">
<path d="M0 0L39 2.5L55 40L30 60C30 60 25.3052 59.9285 22.5 59C19.511 58.0107 18.1629 56.6798 15.5 55C12.8888 53.3528 11.215 52.6508 9 50.5C6.8987 48.4596 6.15966 46.9133 4.5 44.5C3.05737 42.4023 1.90417 41.3799 1 39C0.0192902 36.4186 0 32 0 32V0Z" fill="url(#paint0_linear_627_46068)"/>
<path d="M2.38849 16.0281C5.0899 9.94993 9.94993 5.0899 16.0281 2.38849C18.4992 1.29022 21.1205 0.558146 23.8148 0.327357C25.7905 0.158127 28.1354 0 29.9999 0C31.8645 0 34.2094 0.158127 36.185 0.327357C38.8794 0.558146 41.5006 1.29021 43.9718 2.38849C50.0499 5.0899 54.91 9.95008 57.6114 16.0283C58.7096 18.4992 59.4417 21.1204 59.6726 23.8146C59.8418 25.7903 60 28.1353 60 29.9999C60 31.8646 59.8418 34.2096 59.6726 36.1853C59.4417 38.8794 58.7097 41.5006 57.6115 43.9715C54.91 50.0499 50.0499 54.91 43.9715 57.6115C41.5006 58.7097 38.8794 59.4417 36.1853 59.6726C34.2096 59.8418 31.8646 60 29.9999 60C28.1353 60 25.7903 59.8418 23.8146 59.6726C21.1204 59.4417 18.4992 58.7096 16.0283 57.6114C9.95008 54.91 5.0899 50.0499 2.38849 43.9718C1.29022 41.5006 0.558146 38.8794 0.327356 36.185C0.158127 34.2094 -1.80508e-08 31.8645 0 29.9999C1.80508e-08 28.1354 0.158127 25.7905 0.327357 23.8148C0.558146 21.1205 1.29021 18.4992 2.38849 16.0281Z" fill="url(#paint1_linear_627_46068)"/>
<g clip-path="url(#clip1_627_46068)">
<rect x="29" y="4" width="43" height="4" transform="rotate(-180 29 4)" fill="#7550CC"/>
<rect x="29" y="9" width="43" height="4" transform="rotate(-180 29 9)" fill="#7550CC"/>
<rect x="29" y="14" width="43" height="4" transform="rotate(-180 29 14)" fill="#7550CC"/>
<rect x="29" y="19" width="43" height="4" transform="rotate(-180 29 19)" fill="#7550CC"/>
<rect x="29" y="24" width="43" height="4" transform="rotate(-180 29 24)" fill="#7550CC"/>
<rect x="29" y="29" width="43" height="4" transform="rotate(-180 29 29)" fill="#7550CC"/>
</g>
</g>
<mask id="mask0_627_46068" style="mask-type:alpha" maskUnits="userSpaceOnUse" x="15" y="9" width="33" height="39">
<path d="M37 24C31.4 19.2 32.3333 12 33.5 9H15V48H48L46 32C44.6667 31.3333 42.6 28.8 37 24Z" fill="#C4C4C4"/>
</mask>
<g mask="url(#mask0_627_46068)">
<path d="M39.5556 43.1053H23.4444V45.0526C23.4444 45.5691 23.2747 46.0644 22.9726 46.4296C22.6704 46.7948 22.2606 47 21.8333 47H18.6111C18.1838 47 17.774 46.7948 17.4719 46.4296C17.1697 46.0644 17 45.5691 17 45.0526V27.5263V19.7368V13.8947C17 12.8618 17.3395 11.8711 17.9438 11.1407C18.5481 10.4103 19.3676 10 20.2222 10H42.7778C43.6324 10 44.452 10.4103 45.0562 11.1407C45.6605 11.8711 46 12.8618 46 13.8947V19.7368V27.5263V45.0526C46 45.5691 45.8303 46.0644 45.5281 46.4296C45.226 46.7948 44.8162 47 44.3889 47H41.1667C40.7394 47 40.3296 46.7948 40.0274 46.4296C39.7253 46.0644 39.5556 45.5691 39.5556 45.0526V43.1053ZM20.2222 13.8947V25.5789H42.7778V13.8947H20.2222ZM42.7778 29.4737H20.2222V39.2105H42.7778V29.4737Z" fill="white"/>
</g>
<path d="M54.9257 19.933C56.895 17.9626 58.0013 15.2908 58.0013 12.505C58.0013 9.71918 56.895 7.04738 54.9257 5.077C53.9508 4.10152 52.7933 3.32768 51.5193 2.79971C50.2453 2.27175 48.8797 2 47.5007 2C46.1216 2 44.756 2.27175 43.482 2.79971C42.208 3.32768 41.0505 4.10152 40.0757 5.077C38.1063 7.04738 37 9.71918 37 12.505C37 15.2908 38.1063 17.9626 40.0757 19.933L42.3572 22.1815L45.4217 25.159L45.6212 25.336C46.7837 26.278 48.4862 26.218 49.5812 25.159L53.2337 21.604L54.9257 19.933ZM47.5007 17.0005C46.3072 17.0005 45.1626 16.5264 44.3187 15.6825C43.4748 14.8386 43.0007 13.694 43.0007 12.5005C43.0007 11.307 43.4748 10.1624 44.3187 9.31852C45.1626 8.47461 46.3072 8.0005 47.5007 8.0005C48.6941 8.0005 49.8387 8.47461 50.6826 9.31852C51.5265 10.1624 52.0007 11.307 52.0007 12.5005C52.0007 13.694 51.5265 14.8386 50.6826 15.6825C49.8387 16.5264 48.6941 17.0005 47.5007 17.0005Z" fill="white"/>
<circle cx="25" cy="34" r="3" fill="#78CCDE"/>
<circle cx="38" cy="34" r="3" fill="#FFF0B7"/>
<defs>
<linearGradient id="paint0_linear_627_46068" x1="2.18254" y1="60" x2="68.3881" y2="26.3081" gradientUnits="userSpaceOnUse">
<stop stop-color="#493289"/>
<stop offset="1" stop-color="#6A45C5"/>
</linearGradient>
<linearGradient id="paint1_linear_627_46068" x1="-0.000325428" y1="29.8997" x2="48.0027" y2="5.90198" gradientUnits="userSpaceOnUse">
<stop stop-color="#53389E"/>
<stop offset="1" stop-color="#7F56D9"/>
</linearGradient>
<clipPath id="clip0_627_46068">
<rect width="64" height="60" fill="white"/>
</clipPath>
<clipPath id="clip1_627_46068">
<path d="M29 1.90735e-06C29 16.0163 16.0163 29 -1.90735e-06 29L6.27912e-07 -6.27912e-07L29 1.90735e-06Z" fill="white"/>
</clipPath>
</defs>
</svg>
