<svg width="0" height="0" class="hidden">
  <symbol fill="none" xmlns="http://www.w3.org/2000/svg" viewBox="0 0 16 16" id="arrow-down">
    <path d="M8.00002 10.6668C7.84425 10.6671 7.6933 10.6128 7.57335 10.5134L3.57335 7.1801C3.43721 7.06694 3.35159 6.90434 3.33534 6.72805C3.31909 6.55177 3.37353 6.37625 3.48669 6.2401C3.59985 6.10396 3.76245 6.01834 3.93874 6.00209C4.11502 5.98584 4.29054 6.04028 4.42669 6.15344L8.00002 9.1401L11.5734 6.2601C11.6415 6.20473 11.72 6.16337 11.8042 6.13842C11.8885 6.11346 11.9768 6.1054 12.0641 6.11469C12.1515 6.12398 12.2361 6.15045 12.3132 6.19257C12.3903 6.23468 12.4583 6.29162 12.5134 6.3601C12.5744 6.42865 12.6206 6.50907 12.6492 6.59632C12.6777 6.68357 12.6879 6.77577 12.6791 6.86714C12.6704 6.95852 12.6428 7.0471 12.5983 7.12734C12.5537 7.20757 12.493 7.27774 12.42 7.33344L8.42002 10.5534C8.29663 10.6371 8.14876 10.677 8.00002 10.6668Z"
          fill="#7550CC"></path>
  </symbol>
  <symbol fill="none" xmlns="http://www.w3.org/2000/svg" viewBox="0 0 24 24" id="arrow-right">
    <path d="M9 18L15 12L9 6" stroke="#A6AAB4" stroke-width="1.33" stroke-linecap="round" stroke-linejoin="round">
    </path>
  </symbol>
  <symbol fill="none" xmlns="http://www.w3.org/2000/svg" viewBox="0 0 16 16" id="arrow-up">
    <path d="M8.01463 6.00071C8.1704 6.00041 8.32135 6.05466 8.44129 6.15404L12.4413 9.48738C12.5774 9.60054 12.6631 9.76314 12.6793 9.93943C12.6956 10.1157 12.6411 10.2912 12.528 10.4274C12.4148 10.5635 12.2522 10.6491 12.0759 10.6654C11.8996 10.6816 11.7241 10.6272 11.588 10.514L8.01463 7.52738L4.44129 10.4074C4.3731 10.4628 4.29464 10.5041 4.21041 10.5291C4.12619 10.554 4.03786 10.5621 3.95051 10.5528C3.86315 10.5435 3.7785 10.517 3.70141 10.4749C3.62432 10.4328 3.55631 10.3759 3.50129 10.3074C3.44024 10.2388 3.394 10.1584 3.36547 10.0712C3.33694 9.98391 3.32674 9.89171 3.3355 9.80034C3.34427 9.70896 3.3718 9.62038 3.41639 9.54014C3.46098 9.45991 3.52166 9.38974 3.59463 9.33404L7.59463 6.11404C7.71802 6.03037 7.86589 5.99046 8.01463 6.00071Z"
          fill="#7550CC"></path>
  </symbol>
  <symbol xmlns="http://www.w3.org/2000/svg" viewBox="0 0 24 24" id="back">
    <path fill-rule="evenodd" clip-rule="evenodd"
          d="M22.5 12C22.5 11.8011 22.421 11.6103 22.2803 11.4696C22.1397 11.329 21.9489 11.25 21.75 11.25H4.0605L8.781 6.53097C8.85073 6.46124 8.90604 6.37846 8.94378 6.28735C8.98152 6.19624 9.00094 6.09859 9.00094 5.99997C9.00094 5.90135 8.98152 5.8037 8.94378 5.7126C8.90604 5.62149 8.85073 5.5387 8.781 5.46897C8.71126 5.39924 8.62848 5.34392 8.53737 5.30619C8.44626 5.26845 8.34861 5.24902 8.25 5.24902C8.15138 5.24902 8.05373 5.26845 7.96262 5.30619C7.87151 5.34392 7.78873 5.39924 7.719 5.46897L1.719 11.469C1.64915 11.5386 1.59374 11.6214 1.55593 11.7125C1.51812 11.8036 1.49866 11.9013 1.49866 12C1.49866 12.0986 1.51812 12.1963 1.55593 12.2874C1.59374 12.3785 1.64915 12.4613 1.719 12.531L7.719 18.531C7.78873 18.6007 7.87151 18.656 7.96262 18.6938C8.05373 18.7315 8.15138 18.7509 8.25 18.7509C8.34861 18.7509 8.44626 18.7315 8.53737 18.6938C8.62848 18.656 8.71126 18.6007 8.781 18.531C8.85073 18.4612 8.90604 18.3785 8.94378 18.2873C8.98152 18.1962 9.00094 18.0986 9.00094 18C9.00094 17.9014 8.98152 17.8037 8.94378 17.7126C8.90604 17.6215 8.85073 17.5387 8.781 17.469L4.0605 12.75H21.75C21.9489 12.75 22.1397 12.671 22.2803 12.5303C22.421 12.3896 22.5 12.1989 22.5 12Z">
    </path>
  </symbol>
  <symbol fill="none" xmlns="http://www.w3.org/2000/svg" viewBox="0 0 16 16" id="bus">
    <path d="M2.66663 10.6666C2.66663 11.2533 2.92663 11.7799 3.33329 12.1466V13.9999H5.33329V12.6666H10.6666V13.9999H12.6666V12.1466C13.0733 11.7799 13.3333 11.2533 13.3333 10.6666V3.99992C13.3333 1.66659 10.9466 1.33325 7.99996 1.33325C5.05329 1.33325 2.66663 1.66659 2.66663 3.99992V10.6666ZM4.99996 11.3333C4.44663 11.3333 3.99996 10.8866 3.99996 10.3333C3.99996 9.77992 4.44663 9.33325 4.99996 9.33325C5.55329 9.33325 5.99996 9.77992 5.99996 10.3333C5.99996 10.8866 5.55329 11.3333 4.99996 11.3333ZM11 11.3333C10.4466 11.3333 9.99996 10.8866 9.99996 10.3333C9.99996 9.77992 10.4466 9.33325 11 9.33325C11.5533 9.33325 12 9.77992 12 10.3333C12 10.8866 11.5533 11.3333 11 11.3333ZM12 7.33325H3.99996V3.99992H12V7.33325Z"
          fill="#7550CC"></path>
  </symbol>
  <symbol fill="none" xmlns="http://www.w3.org/2000/svg" viewBox="0 0 73 82" id="BusStop_active_blank">
    <g filter="url(#filter0_dd_752_55245)">
      <mask id="path-1-inside-1_752_55245" fill="white">
        <path fill-rule="evenodd" clip-rule="evenodd"
              d="M26.9525 14.1321C22.7991 15.9781 19.4781 19.2991 17.6321 23.4525C16.8816 25.1411 16.3814 26.9323 16.2237 28.7735C16.1081 30.1235 16 31.7258 16 33C16 34.2741 16.1081 35.8764 16.2237 37.2264C16.3814 39.0676 16.8816 40.8588 17.6321 42.5474C19.4781 46.7008 22.7992 50.0218 26.9526 51.8678C28.6411 52.6183 30.4323 53.1185 32.2733 53.2762C32.3424 53.2822 32.4121 53.2881 32.4825 53.2939L35.5695 61.1362C35.9022 61.9812 37.0979 61.9812 37.4305 61.1362L40.5177 53.2939C40.5879 53.2881 40.6576 53.2822 40.7266 53.2762C42.5676 53.1185 44.3587 52.6183 46.0472 51.8678C50.2007 50.0218 53.5218 46.7007 55.3678 42.5472C56.1183 40.8587 56.6185 39.0676 56.7762 37.2266C56.8919 35.8765 57 34.2741 57 33C57 31.7258 56.8919 30.1234 56.7762 28.7733C56.6185 26.9323 56.1183 25.1411 55.3678 23.4526C53.5219 19.2992 50.2008 15.9781 46.0474 14.1321C44.3588 13.3816 42.5676 12.8814 40.7264 12.7237C39.3764 12.6081 37.7741 12.5 36.5 12.5C35.2258 12.5 33.6235 12.6081 32.2735 12.7237C30.4323 12.8814 28.6411 13.3816 26.9525 14.1321Z">
        </path>
      </mask>
      <path fill-rule="evenodd" clip-rule="evenodd"
            d="M26.9525 14.1321C22.7991 15.9781 19.4781 19.2991 17.6321 23.4525C16.8816 25.1411 16.3814 26.9323 16.2237 28.7735C16.1081 30.1235 16 31.7258 16 33C16 34.2741 16.1081 35.8764 16.2237 37.2264C16.3814 39.0676 16.8816 40.8588 17.6321 42.5474C19.4781 46.7008 22.7992 50.0218 26.9526 51.8678C28.6411 52.6183 30.4323 53.1185 32.2733 53.2762C32.3424 53.2822 32.4121 53.2881 32.4825 53.2939L35.5695 61.1362C35.9022 61.9812 37.0979 61.9812 37.4305 61.1362L40.5177 53.2939C40.5879 53.2881 40.6576 53.2822 40.7266 53.2762C42.5676 53.1185 44.3587 52.6183 46.0472 51.8678C50.2007 50.0218 53.5218 46.7007 55.3678 42.5472C56.1183 40.8587 56.6185 39.0676 56.7762 37.2266C56.8919 35.8765 57 34.2741 57 33C57 31.7258 56.8919 30.1234 56.7762 28.7733C56.6185 26.9323 56.1183 25.1411 55.3678 23.4526C53.5219 19.2992 50.2008 15.9781 46.0474 14.1321C44.3588 13.3816 42.5676 12.8814 40.7264 12.7237C39.3764 12.6081 37.7741 12.5 36.5 12.5C35.2258 12.5 33.6235 12.6081 32.2735 12.7237C30.4323 12.8814 28.6411 13.3816 26.9525 14.1321Z"
            fill="white"></path>
      <path d="M17.6321 23.4525L16.7183 23.0464L17.6321 23.4525ZM26.9525 14.1321L27.3587 15.0459L26.9525 14.1321ZM16.2237 28.7735L17.22 28.8588L16.2237 28.7735ZM16.2237 37.2264L15.2273 37.3118L16.2237 37.2264ZM17.6321 42.5474L16.7183 42.9535L17.6321 42.5474ZM26.9526 51.8678L26.5465 52.7816H26.5465L26.9526 51.8678ZM32.2733 53.2762L32.3587 52.2799H32.3587L32.2733 53.2762ZM32.4825 53.2939L33.413 52.9276L33.1852 52.3491L32.5656 52.2974L32.4825 53.2939ZM35.5695 61.1362L36.5001 60.7699L36.5 60.7699L35.5695 61.1362ZM37.4305 61.1362L36.5 60.7699L36.5 60.7699L37.4305 61.1362ZM40.5177 53.2939L40.4345 52.2974L39.8149 52.3491L39.5872 52.9276L40.5177 53.2939ZM40.7266 53.2762L40.6412 52.2799L40.7266 53.2762ZM46.0472 51.8678L46.4534 52.7816L46.0472 51.8678ZM55.3678 42.5472L54.454 42.1411L55.3678 42.5472ZM56.7762 37.2266L55.7799 37.1412V37.1412L56.7762 37.2266ZM56.7762 28.7733L55.7799 28.8587V28.8587L56.7762 28.7733ZM55.3678 23.4526L56.2816 23.0465L55.3678 23.4526ZM46.0474 14.1321L45.6412 15.0459L45.6412 15.0459L46.0474 14.1321ZM40.7264 12.7237L40.6411 13.72L40.7264 12.7237ZM32.2735 12.7237L32.3588 13.72L32.2735 12.7237ZM18.5459 23.8587C20.2914 19.9315 23.4315 16.7914 27.3587 15.0459L26.5464 13.2183C22.1668 15.1648 18.6648 18.6668 16.7183 23.0464L18.5459 23.8587ZM17.22 28.8588C17.3671 27.142 17.8348 25.4589 18.5459 23.8587L16.7183 23.0464C15.9285 24.8234 15.3957 26.7227 15.2273 28.6881L17.22 28.8588ZM17 33C17 31.7701 17.105 30.2023 17.22 28.8588L15.2273 28.6881C15.1111 30.0446 15 31.6816 15 33H17ZM17.22 37.1411C17.105 35.7976 17 34.2298 17 33H15C15 34.3183 15.1111 35.9553 15.2273 37.3118L17.22 37.1411ZM18.5459 42.1412C17.8348 40.541 17.3671 38.8579 17.22 37.1411L15.2273 37.3118C15.3957 39.2772 15.9285 41.1765 16.7183 42.9535L18.5459 42.1412ZM27.3588 50.954C23.4316 49.2086 20.2914 46.0684 18.5459 42.1412L16.7183 42.9535C18.6648 47.3332 22.1669 50.8351 26.5465 52.7816L27.3588 50.954ZM32.3587 52.2799C30.6419 52.1328 28.9589 51.6652 27.3588 50.954L26.5465 52.7816C28.3234 53.5714 30.2226 54.1042 32.1879 54.2726L32.3587 52.2799ZM32.5656 52.2974C32.496 52.2916 32.427 52.2858 32.3587 52.2799L32.1879 54.2726C32.2578 54.2786 32.3283 54.2845 32.3993 54.2905L32.5656 52.2974ZM31.552 53.6602L34.639 61.5025L36.5 60.7699L33.413 52.9276L31.552 53.6602ZM34.639 61.5025C35.3043 63.1924 37.6958 63.1924 38.3611 61.5025L36.5 60.7699H36.5001L34.639 61.5025ZM38.361 61.5025L41.4482 53.6602L39.5872 52.9276L36.5 60.7699L38.361 61.5025ZM40.6412 52.2799C40.5729 52.2858 40.504 52.2916 40.4345 52.2974L40.6008 54.2905C40.6718 54.2845 40.7422 54.2786 40.812 54.2726L40.6412 52.2799ZM45.6411 50.954C44.041 51.6652 42.358 52.1328 40.6412 52.2799L40.812 54.2726C42.7773 54.1042 44.6765 53.5714 46.4534 52.7816L45.6411 50.954ZM54.454 42.1411C52.7086 46.0684 49.5684 49.2086 45.6411 50.954L46.4534 52.7816C50.8331 50.8351 54.3351 47.3331 56.2816 42.9534L54.454 42.1411ZM55.7799 37.1412C55.6328 38.858 55.1652 40.541 54.454 42.1411L56.2816 42.9534C57.0714 41.1765 57.6042 39.2773 57.7726 37.312L55.7799 37.1412ZM56 33C56 34.2299 55.895 35.7977 55.7799 37.1412L57.7726 37.312C57.8888 35.9554 58 34.3183 58 33H56ZM55.7799 28.8587C55.895 30.2022 56 31.77 56 33H58C58 31.6816 57.8888 30.0445 57.7726 28.6879L55.7799 28.8587ZM54.454 23.8588C55.1652 25.4589 55.6328 27.1419 55.7799 28.8587L57.7726 28.6879C57.6042 26.7226 57.0714 24.8234 56.2816 23.0465L54.454 23.8588ZM45.6412 15.0459C49.5684 16.7914 52.7086 19.9316 54.454 23.8588L56.2816 23.0465C54.3351 18.6669 50.8332 15.1648 46.4535 13.2183L45.6412 15.0459ZM40.6411 13.72C42.3579 13.8671 44.041 14.3348 45.6412 15.0459L46.4535 13.2183C44.6765 12.4285 42.7772 11.8957 40.8118 11.7273L40.6411 13.72ZM36.5 13.5C37.7298 13.5 39.2976 13.605 40.6411 13.72L40.8118 11.7273C39.4553 11.6111 37.8183 11.5 36.5 11.5V13.5ZM32.3588 13.72C33.7023 13.605 35.2701 13.5 36.5 13.5V11.5C35.1816 11.5 33.5446 11.6111 32.1881 11.7273L32.3588 13.72ZM27.3587 15.0459C28.9589 14.3348 30.642 13.8671 32.3588 13.72L32.1881 11.7273C30.2227 11.8957 28.3234 12.4285 26.5464 13.2183L27.3587 15.0459Z"
            fill="url(#paint0_linear_752_55245)" mask="url(#path-1-inside-1_752_55245)"></path>
    </g>
    <defs>
      <filter id="filter0_dd_752_55245" x="0" y="0" width="75" height="82" filterUnits="userSpaceOnUse"
              color-interpolation-filters="sRGB">
        <feFlood flood-opacity="0" result="BackgroundImageFix"></feFlood>
        <feColorMatrix in="SourceAlpha" type="matrix" values="0 0 0 0 0 0 0 0 0 0 0 0 0 0 0 0 0 0 127 0"
                       result="hardAlpha"></feColorMatrix>
        <feOffset dy="4"></feOffset>
        <feGaussianBlur stdDeviation="8"></feGaussianBlur>
        <feColorMatrix type="matrix" values="0 0 0 0 0.2 0 0 0 0 0.2 0 0 0 0 0.2 0 0 0 0.08 0"></feColorMatrix>
        <feBlend mode="normal" in2="BackgroundImageFix" result="effect1_dropShadow_752_55245"></feBlend>
        <feColorMatrix in="SourceAlpha" type="matrix" values="0 0 0 0 0 0 0 0 0 0 0 0 0 0 0 0 0 0 127 0"
                       result="hardAlpha"></feColorMatrix>
        <feOffset dy="4"></feOffset>
        <feGaussianBlur stdDeviation="2"></feGaussianBlur>
        <feColorMatrix type="matrix" values="0 0 0 0 0.2 0 0 0 0 0.2 0 0 0 0 0.2 0 0 0 0.04 0"></feColorMatrix>
        <feBlend mode="normal" in2="effect1_dropShadow_752_55245" result="effect2_dropShadow_752_55245"></feBlend>
        <feBlend mode="normal" in="SourceGraphic" in2="effect2_dropShadow_752_55245" result="shape"></feBlend>
      </filter>
      <linearGradient id="paint0_linear_752_55245" x1="17.627" y1="61.77" x2="68.833" y2="38.1139"
                      gradientUnits="userSpaceOnUse">
        <stop stop-color="#493289"></stop>
        <stop offset="1" stop-color="#6A45C5"></stop>
      </linearGradient>
    </defs>
  </symbol>
  <symbol fill="none" xmlns="http://www.w3.org/2000/svg" viewBox="0 0 43 50" id="BusStop_active">
    <mask id="path-1-inside-1_970_84973" fill="white">
      <path fill-rule="evenodd" clip-rule="evenodd"
            d="M11.9525 2.13214C7.79912 3.9781 4.4781 7.29912 2.63214 11.4525C1.88165 13.1411 1.3814 14.9323 1.22369 16.7735C1.10805 18.1235 1 19.7258 1 21C1 22.2741 1.10805 23.8764 1.22369 25.2264C1.3814 27.0676 1.88165 28.8588 2.63214 30.5474C4.4781 34.7008 7.79922 38.0218 11.9526 39.8678C13.6411 40.6183 15.4323 41.1185 17.2733 41.2762C17.3424 41.2822 17.4121 41.2881 17.4825 41.2939L20.5695 49.1362C20.9022 49.9812 22.0979 49.9812 22.4305 49.1362L25.5177 41.2939C25.5879 41.2881 25.6576 41.2822 25.7266 41.2762C27.5676 41.1185 29.3587 40.6183 31.0472 39.8678C35.2007 38.0218 38.5218 34.7007 40.3678 30.5472C41.1183 28.8587 41.6185 27.0676 41.7762 25.2266C41.8919 23.8765 42 22.2741 42 21C42 19.7258 41.8919 18.1234 41.7762 16.7733C41.6185 14.9323 41.1183 13.1411 40.3678 11.4526C38.5219 7.29922 35.2008 3.9781 31.0474 2.13214C29.3588 1.38165 27.5676 0.8814 25.7264 0.723694C24.3764 0.608054 22.7741 0.5 21.5 0.5C20.2258 0.5 18.6235 0.608054 17.2735 0.723694C15.4323 0.8814 13.6411 1.38165 11.9525 2.13214Z">
      </path>
    </mask>
    <path fill-rule="evenodd" clip-rule="evenodd"
          d="M11.9525 2.13214C7.79912 3.9781 4.4781 7.29912 2.63214 11.4525C1.88165 13.1411 1.3814 14.9323 1.22369 16.7735C1.10805 18.1235 1 19.7258 1 21C1 22.2741 1.10805 23.8764 1.22369 25.2264C1.3814 27.0676 1.88165 28.8588 2.63214 30.5474C4.4781 34.7008 7.79922 38.0218 11.9526 39.8678C13.6411 40.6183 15.4323 41.1185 17.2733 41.2762C17.3424 41.2822 17.4121 41.2881 17.4825 41.2939L20.5695 49.1362C20.9022 49.9812 22.0979 49.9812 22.4305 49.1362L25.5177 41.2939C25.5879 41.2881 25.6576 41.2822 25.7266 41.2762C27.5676 41.1185 29.3587 40.6183 31.0472 39.8678C35.2007 38.0218 38.5218 34.7007 40.3678 30.5472C41.1183 28.8587 41.6185 27.0676 41.7762 25.2266C41.8919 23.8765 42 22.2741 42 21C42 19.7258 41.8919 18.1234 41.7762 16.7733C41.6185 14.9323 41.1183 13.1411 40.3678 11.4526C38.5219 7.29922 35.2008 3.9781 31.0474 2.13214C29.3588 1.38165 27.5676 0.8814 25.7264 0.723694C24.3764 0.608054 22.7741 0.5 21.5 0.5C20.2258 0.5 18.6235 0.608054 17.2735 0.723694C15.4323 0.8814 13.6411 1.38165 11.9525 2.13214Z"
          fill="white"></path>
    <path d="M2.63214 11.4525L0.804512 10.6403L0.804512 10.6403L2.63214 11.4525ZM11.9525 2.13214L12.7648 3.95976L12.7648 3.95976L11.9525 2.13214ZM1.22369 16.7735L3.2164 16.9442L1.22369 16.7735ZM1.22369 25.2264L-0.769009 25.3971L-0.769009 25.3971L1.22369 25.2264ZM2.63214 30.5474L0.804512 31.3596L2.63214 30.5474ZM11.9526 39.8678L11.1404 41.6954L11.1404 41.6954L11.9526 39.8678ZM17.2733 41.2762L17.4441 39.2836L17.444 39.2835L17.2733 41.2762ZM17.4825 41.2939L19.3435 40.5614L18.888 39.4042L17.6487 39.3009L17.4825 41.2939ZM20.5695 49.1362L22.4306 48.4036L22.4306 48.4036L20.5695 49.1362ZM22.4305 49.1362L20.5695 48.4036L20.5695 48.4036L22.4305 49.1362ZM25.5177 41.2939L25.3514 39.3008L24.1122 39.4042L23.6567 40.5613L25.5177 41.2939ZM25.7266 41.2762L25.5559 39.2835L25.5559 39.2835L25.7266 41.2762ZM31.0472 39.8678L31.8595 41.6955L31.8595 41.6955L31.0472 39.8678ZM40.3678 30.5472L38.5402 29.7349L38.5402 29.7349L40.3678 30.5472ZM41.7762 25.2266L39.7835 25.0559L39.7835 25.0559L41.7762 25.2266ZM41.7762 16.7733L39.7835 16.944L39.7835 16.944L41.7762 16.7733ZM40.3678 11.4526L42.1954 10.6404L42.1954 10.6404L40.3678 11.4526ZM31.0474 2.13214L30.2351 3.95976L30.2351 3.95976L31.0474 2.13214ZM25.7264 0.723694L25.5558 2.7164L25.5558 2.7164L25.7264 0.723694ZM17.2735 0.723694L17.4442 2.7164L17.2735 0.723694ZM4.45976 12.2648C6.10463 8.56386 9.06386 5.60463 12.7648 3.95976L11.1403 0.304512C6.53438 2.35157 2.85157 6.03438 0.804512 10.6403L4.45976 12.2648ZM3.2164 16.9442C3.35281 15.3516 3.78786 13.7766 4.45976 12.2648L0.804512 10.6403C-0.0245633 12.5057 -0.590009 14.5131 -0.769009 16.6028L3.2164 16.9442ZM3 21C3 19.8143 3.10187 18.2812 3.2164 16.9442L-0.769009 16.6028C-0.885761 17.9658 -1 19.6374 -1 21H3ZM3.2164 25.0557C3.10187 23.7187 3 22.1856 3 21H-1C-1 22.3625 -0.885761 24.0341 -0.769009 25.3971L3.2164 25.0557ZM4.45976 29.7351C3.78786 28.2233 3.35281 26.6483 3.2164 25.0557L-0.769009 25.3971C-0.590009 27.4868 -0.024563 29.4942 0.804512 31.3596L4.45976 29.7351ZM12.7649 38.0402C9.06395 36.3953 6.10462 33.436 4.45976 29.7351L0.804512 31.3596C2.85158 35.9655 6.53449 39.6484 11.1404 41.6954L12.7649 38.0402ZM17.444 39.2835C15.8516 39.1471 14.2766 38.7121 12.7649 38.0402L11.1404 41.6954C13.0057 42.5245 15.013 43.0899 17.1026 43.2689L17.444 39.2835ZM17.6487 39.3009C17.5798 39.2951 17.5116 39.2893 17.4441 39.2836L17.1025 43.2689C17.1732 43.275 17.2444 43.281 17.3162 43.287L17.6487 39.3009ZM15.6215 42.0265L18.7085 49.8688L22.4306 48.4036L19.3435 40.5614L15.6215 42.0265ZM18.7085 49.8688C19.7064 52.4036 23.2937 52.4036 24.2916 49.8688L20.5695 48.4036C20.9022 47.5587 22.0979 47.5587 22.4306 48.4036L18.7085 49.8688ZM24.2916 49.8688L27.3787 42.0265L23.6567 40.5613L20.5695 48.4036L24.2916 49.8688ZM25.5559 39.2835C25.4883 39.2893 25.4201 39.2951 25.3514 39.3008L25.6839 43.287C25.7557 43.281 25.8269 43.275 25.8973 43.2689L25.5559 39.2835ZM30.235 38.0402C28.7232 38.7121 27.1483 39.1471 25.5559 39.2835L25.8973 43.2689C27.9869 43.0899 29.9942 42.5245 31.8595 41.6955L30.235 38.0402ZM38.5402 29.7349C36.8953 33.436 33.936 36.3953 30.2349 38.0402L31.8595 41.6955C36.4655 39.6484 40.1484 35.9655 42.1955 31.3595L38.5402 29.7349ZM39.7835 25.0559C39.6471 26.6483 39.2121 28.2232 38.5402 29.7349L42.1955 31.3595C43.0245 29.4942 43.5899 27.4869 43.7689 25.3973L39.7835 25.0559ZM40 21C40 22.1856 39.8981 23.7188 39.7835 25.0559L43.7689 25.3973C43.8857 24.0343 44 22.3626 44 21H40ZM39.7835 16.944C39.8981 18.2811 40 19.8143 40 21H44C44 19.6373 43.8857 17.9656 43.7689 16.6026L39.7835 16.944ZM38.5402 12.2649C39.2121 13.7766 39.6471 15.3516 39.7835 16.944L43.7689 16.6026C43.5899 14.513 43.0245 12.5057 42.1954 10.6404L38.5402 12.2649ZM30.2351 3.95976C33.936 5.60462 36.8953 8.56395 38.5402 12.2649L42.1954 10.6404C40.1484 6.03449 36.4655 2.35158 31.8596 0.304512L30.2351 3.95976ZM25.5558 2.7164C27.1483 2.85281 28.7233 3.28786 30.2351 3.95976L31.8596 0.304513C29.9942 -0.524563 27.9868 -1.09001 25.8971 -1.26901L25.5558 2.7164ZM21.5 2.5C22.6856 2.5 24.2187 2.60187 25.5558 2.7164L25.8971 -1.26901C24.5341 -1.38576 22.8625 -1.5 21.5 -1.5V2.5ZM17.4442 2.7164C18.7812 2.60187 20.3143 2.5 21.5 2.5V-1.5C20.1374 -1.5 18.4658 -1.38576 17.1028 -1.26901L17.4442 2.7164ZM12.7648 3.95976C14.2766 3.28786 15.8516 2.85281 17.4442 2.7164L17.1028 -1.26901C15.0131 -1.09001 13.0057 -0.524562 11.1403 0.304512L12.7648 3.95976Z"
          fill="#7550CC" mask="url(#path-1-inside-1_970_84973)"></path>
    <path d="M31.5286 15.5H30.5714V12.75C30.5714 12.0207 30.2704 11.3212 29.7346 10.8055C29.1988 10.2897 28.472 10 27.7143 10H16.2857C15.528 10 14.8012 10.2897 14.2654 10.8055C13.7296 11.3212 13.4286 12.0207 13.4286 12.75V15.5H12.4571C12.3359 15.5 12.2196 15.5464 12.1339 15.6289C12.0482 15.7114 12 15.8233 12 15.94V19.185C12 19.4284 12.2043 19.625 12.4571 19.625H13.4286V27.875C13.4286 28.6313 13.4286 29.25 14.8571 29.25V31.3125C14.8571 31.4948 14.9324 31.6697 15.0664 31.7986C15.2003 31.9276 15.382 32 15.5714 32H18.4286C18.618 32 18.7997 31.9276 18.9336 31.7986C19.0676 31.6697 19.1429 31.4948 19.1429 31.3125V29.25H24.8571V31.3125C24.8571 31.4948 24.9324 31.6697 25.0664 31.7986C25.2003 31.9276 25.382 32 25.5714 32H28.4286C28.618 32 28.7997 31.9276 28.9336 31.7986C29.0676 31.6697 29.1429 31.4948 29.1429 31.3125V29.25C30.5714 29.25 30.5714 28.6313 30.5714 27.875V19.625H31.5286C31.6536 19.625 31.7735 19.5772 31.8619 19.4921C31.9503 19.407 32 19.2916 32 19.1713C32 19.0509 31.9503 18.9355 31.8619 18.8504C31.7735 18.7653 31.6536 18.7175 31.5286 18.7175C31.4035 18.7175 31.2836 18.7653 31.1952 18.8504C31.1068 18.9355 31.0571 19.0509 31.0571 19.1713C31.0571 19.2916 31.1068 19.407 31.1952 19.4921C31.2836 19.5772 31.4035 19.625 31.5286 19.625C31.6536 19.625 31.7735 19.5772 31.8619 19.4921C31.9503 19.407 32 19.2916 32 19.1713V15.9537C32 15.8334 31.9503 15.718 31.8619 15.6329C31.7735 15.5478 31.6536 15.5 31.5286 15.5ZM19.1429 11.375H24.8571V12.75H19.1429V11.375ZM16.2857 26.5C15.9068 26.5 15.5435 26.3551 15.2756 26.0973C15.0077 25.8394 14.8571 25.4897 14.8571 25.125C14.8571 24.7603 15.0077 24.4106 15.2756 24.1527C15.5435 23.8949 15.9068 23.75 16.2857 23.75C16.6646 23.75 17.028 23.8949 17.2959 24.1527C17.5638 24.4106 17.7143 24.7603 17.7143 25.125C17.7143 25.4897 17.5638 25.8394 17.2959 26.0973C17.028 26.3551 16.6646 26.5 16.2857 26.5ZM14.8571 21V14.125H29.1429V21H14.8571ZM27.7143 26.5C27.3354 26.5 26.972 26.3551 26.7041 26.0973C26.4362 25.8394 26.2857 25.4897 26.2857 25.125C26.2857 24.7603 26.4362 24.4106 26.7041 24.1527C26.972 23.8949 27.3354 23.75 27.7143 23.75C28.0932 23.75 28.4565 23.8949 28.7244 24.1527C28.9923 24.4106 29.1429 24.7603 29.1429 25.125C29.1429 25.4897 28.9923 25.8394 28.7244 26.0973C28.4565 26.3551 28.0932 26.5 27.7143 26.5Z"
          fill="#7550CC"></path>
  </symbol>
  <symbol fill="none" xmlns="http://www.w3.org/2000/svg" viewBox="0 0 73 82" id="BusStop_blank">
    <g filter="url(#filter0_dd_752_55256)">
      <mask id="path-1-inside-1_752_55256" fill="white">
        <path fill-rule="evenodd" clip-rule="evenodd"
              d="M26.9525 14.1321C22.7991 15.9781 19.4781 19.2991 17.6321 23.4525C16.8816 25.1411 16.3814 26.9323 16.2237 28.7735C16.1081 30.1235 16 31.7258 16 33C16 34.2741 16.1081 35.8764 16.2237 37.2264C16.3814 39.0676 16.8816 40.8588 17.6321 42.5474C19.4781 46.7008 22.7992 50.0218 26.9526 51.8678C28.6411 52.6183 30.4323 53.1185 32.2733 53.2762C32.3424 53.2822 32.4121 53.2881 32.4825 53.2939L35.5695 61.1362C35.9022 61.9812 37.0979 61.9812 37.4305 61.1362L40.5177 53.2939C40.5879 53.2881 40.6576 53.2822 40.7266 53.2762C42.5676 53.1185 44.3587 52.6183 46.0472 51.8678C50.2007 50.0218 53.5218 46.7007 55.3678 42.5472C56.1183 40.8587 56.6185 39.0676 56.7762 37.2266C56.8919 35.8765 57 34.2741 57 33C57 31.7258 56.8919 30.1234 56.7762 28.7733C56.6185 26.9323 56.1183 25.1411 55.3678 23.4526C53.5219 19.2992 50.2008 15.9781 46.0474 14.1321C44.3588 13.3816 42.5676 12.8814 40.7264 12.7237C39.3764 12.6081 37.7741 12.5 36.5 12.5C35.2258 12.5 33.6235 12.6081 32.2735 12.7237C30.4323 12.8814 28.6411 13.3816 26.9525 14.1321Z">
        </path>
      </mask>
      <path fill-rule="evenodd" clip-rule="evenodd"
            d="M26.9525 14.1321C22.7991 15.9781 19.4781 19.2991 17.6321 23.4525C16.8816 25.1411 16.3814 26.9323 16.2237 28.7735C16.1081 30.1235 16 31.7258 16 33C16 34.2741 16.1081 35.8764 16.2237 37.2264C16.3814 39.0676 16.8816 40.8588 17.6321 42.5474C19.4781 46.7008 22.7992 50.0218 26.9526 51.8678C28.6411 52.6183 30.4323 53.1185 32.2733 53.2762C32.3424 53.2822 32.4121 53.2881 32.4825 53.2939L35.5695 61.1362C35.9022 61.9812 37.0979 61.9812 37.4305 61.1362L40.5177 53.2939C40.5879 53.2881 40.6576 53.2822 40.7266 53.2762C42.5676 53.1185 44.3587 52.6183 46.0472 51.8678C50.2007 50.0218 53.5218 46.7007 55.3678 42.5472C56.1183 40.8587 56.6185 39.0676 56.7762 37.2266C56.8919 35.8765 57 34.2741 57 33C57 31.7258 56.8919 30.1234 56.7762 28.7733C56.6185 26.9323 56.1183 25.1411 55.3678 23.4526C53.5219 19.2992 50.2008 15.9781 46.0474 14.1321C44.3588 13.3816 42.5676 12.8814 40.7264 12.7237C39.3764 12.6081 37.7741 12.5 36.5 12.5C35.2258 12.5 33.6235 12.6081 32.2735 12.7237C30.4323 12.8814 28.6411 13.3816 26.9525 14.1321Z"
            fill="url(#paint0_linear_752_55256)"></path>
      <path d="M17.6321 23.4525L16.7183 23.0464L17.6321 23.4525ZM26.9525 14.1321L27.3587 15.0459L26.9525 14.1321ZM16.2237 28.7735L17.22 28.8588L16.2237 28.7735ZM16.2237 37.2264L15.2273 37.3118L16.2237 37.2264ZM17.6321 42.5474L16.7183 42.9535L17.6321 42.5474ZM26.9526 51.8678L26.5465 52.7816H26.5465L26.9526 51.8678ZM32.2733 53.2762L32.3587 52.2799H32.3587L32.2733 53.2762ZM32.4825 53.2939L33.413 52.9276L33.1852 52.3491L32.5656 52.2974L32.4825 53.2939ZM35.5695 61.1362L36.5001 60.7699L36.5 60.7699L35.5695 61.1362ZM37.4305 61.1362L36.5 60.7699L36.5 60.7699L37.4305 61.1362ZM40.5177 53.2939L40.4345 52.2974L39.8149 52.3491L39.5872 52.9276L40.5177 53.2939ZM40.7266 53.2762L40.6412 52.2799L40.7266 53.2762ZM46.0472 51.8678L46.4534 52.7816L46.0472 51.8678ZM55.3678 42.5472L54.454 42.1411L55.3678 42.5472ZM56.7762 37.2266L55.7799 37.1412V37.1412L56.7762 37.2266ZM56.7762 28.7733L55.7799 28.8587V28.8587L56.7762 28.7733ZM55.3678 23.4526L56.2816 23.0465L55.3678 23.4526ZM46.0474 14.1321L45.6412 15.0459L45.6412 15.0459L46.0474 14.1321ZM40.7264 12.7237L40.6411 13.72L40.7264 12.7237ZM32.2735 12.7237L32.3588 13.72L32.2735 12.7237ZM18.5459 23.8587C20.2914 19.9315 23.4315 16.7914 27.3587 15.0459L26.5464 13.2183C22.1668 15.1648 18.6648 18.6668 16.7183 23.0464L18.5459 23.8587ZM17.22 28.8588C17.3671 27.142 17.8348 25.4589 18.5459 23.8587L16.7183 23.0464C15.9285 24.8234 15.3957 26.7227 15.2273 28.6881L17.22 28.8588ZM17 33C17 31.7701 17.105 30.2023 17.22 28.8588L15.2273 28.6881C15.1111 30.0446 15 31.6816 15 33H17ZM17.22 37.1411C17.105 35.7976 17 34.2298 17 33H15C15 34.3183 15.1111 35.9553 15.2273 37.3118L17.22 37.1411ZM18.5459 42.1412C17.8348 40.541 17.3671 38.8579 17.22 37.1411L15.2273 37.3118C15.3957 39.2772 15.9285 41.1765 16.7183 42.9535L18.5459 42.1412ZM27.3588 50.954C23.4316 49.2086 20.2914 46.0684 18.5459 42.1412L16.7183 42.9535C18.6648 47.3332 22.1669 50.8351 26.5465 52.7816L27.3588 50.954ZM32.3587 52.2799C30.6419 52.1328 28.9589 51.6652 27.3588 50.954L26.5465 52.7816C28.3234 53.5714 30.2226 54.1042 32.1879 54.2726L32.3587 52.2799ZM32.5656 52.2974C32.496 52.2916 32.427 52.2858 32.3587 52.2799L32.1879 54.2726C32.2578 54.2786 32.3283 54.2845 32.3993 54.2905L32.5656 52.2974ZM31.552 53.6602L34.639 61.5025L36.5 60.7699L33.413 52.9276L31.552 53.6602ZM34.639 61.5025C35.3043 63.1924 37.6958 63.1924 38.3611 61.5025L36.5 60.7699H36.5001L34.639 61.5025ZM38.361 61.5025L41.4482 53.6602L39.5872 52.9276L36.5 60.7699L38.361 61.5025ZM40.6412 52.2799C40.5729 52.2858 40.504 52.2916 40.4345 52.2974L40.6008 54.2905C40.6718 54.2845 40.7422 54.2786 40.812 54.2726L40.6412 52.2799ZM45.6411 50.954C44.041 51.6652 42.358 52.1328 40.6412 52.2799L40.812 54.2726C42.7773 54.1042 44.6765 53.5714 46.4534 52.7816L45.6411 50.954ZM54.454 42.1411C52.7086 46.0684 49.5684 49.2086 45.6411 50.954L46.4534 52.7816C50.8331 50.8351 54.3351 47.3331 56.2816 42.9534L54.454 42.1411ZM55.7799 37.1412C55.6328 38.858 55.1652 40.541 54.454 42.1411L56.2816 42.9534C57.0714 41.1765 57.6042 39.2773 57.7726 37.312L55.7799 37.1412ZM56 33C56 34.2299 55.895 35.7977 55.7799 37.1412L57.7726 37.312C57.8888 35.9554 58 34.3183 58 33H56ZM55.7799 28.8587C55.895 30.2022 56 31.77 56 33H58C58 31.6816 57.8888 30.0445 57.7726 28.6879L55.7799 28.8587ZM54.454 23.8588C55.1652 25.4589 55.6328 27.1419 55.7799 28.8587L57.7726 28.6879C57.6042 26.7226 57.0714 24.8234 56.2816 23.0465L54.454 23.8588ZM45.6412 15.0459C49.5684 16.7914 52.7086 19.9316 54.454 23.8588L56.2816 23.0465C54.3351 18.6669 50.8332 15.1648 46.4535 13.2183L45.6412 15.0459ZM40.6411 13.72C42.3579 13.8671 44.041 14.3348 45.6412 15.0459L46.4535 13.2183C44.6765 12.4285 42.7772 11.8957 40.8118 11.7273L40.6411 13.72ZM36.5 13.5C37.7298 13.5 39.2976 13.605 40.6411 13.72L40.8118 11.7273C39.4553 11.6111 37.8183 11.5 36.5 11.5V13.5ZM32.3588 13.72C33.7023 13.605 35.2701 13.5 36.5 13.5V11.5C35.1816 11.5 33.5446 11.6111 32.1881 11.7273L32.3588 13.72ZM27.3587 15.0459C28.9589 14.3348 30.642 13.8671 32.3588 13.72L32.1881 11.7273C30.2227 11.8957 28.3234 12.4285 26.5464 13.2183L27.3587 15.0459Z"
            fill="white" mask="url(#path-1-inside-1_752_55256)"></path>
    </g>
    <defs>
      <filter id="filter0_dd_752_55256" x="0" y="0" width="75" height="82" filterUnits="userSpaceOnUse"
              color-interpolation-filters="sRGB">
        <feFlood flood-opacity="0" result="BackgroundImageFix"></feFlood>
        <feColorMatrix in="SourceAlpha" type="matrix" values="0 0 0 0 0 0 0 0 0 0 0 0 0 0 0 0 0 0 127 0"
                       result="hardAlpha"></feColorMatrix>
        <feOffset dy="4"></feOffset>
        <feGaussianBlur stdDeviation="8"></feGaussianBlur>
        <feColorMatrix type="matrix" values="0 0 0 0 0.2 0 0 0 0 0.2 0 0 0 0 0.2 0 0 0 0.08 0"></feColorMatrix>
        <feBlend mode="normal" in2="BackgroundImageFix" result="effect1_dropShadow_752_55256"></feBlend>
        <feColorMatrix in="SourceAlpha" type="matrix" values="0 0 0 0 0 0 0 0 0 0 0 0 0 0 0 0 0 0 127 0"
                       result="hardAlpha"></feColorMatrix>
        <feOffset dy="4"></feOffset>
        <feGaussianBlur stdDeviation="2"></feGaussianBlur>
        <feColorMatrix type="matrix" values="0 0 0 0 0.2 0 0 0 0 0.2 0 0 0 0 0.2 0 0 0 0.04 0"></feColorMatrix>
        <feBlend mode="normal" in2="effect1_dropShadow_752_55256" result="effect2_dropShadow_752_55256"></feBlend>
        <feBlend mode="normal" in="SourceGraphic" in2="effect2_dropShadow_752_55256" result="shape"></feBlend>
      </filter>
      <linearGradient id="paint0_linear_752_55256" x1="17.627" y1="61.77" x2="68.833" y2="38.1139"
                      gradientUnits="userSpaceOnUse">
        <stop stop-color="#493289"></stop>
        <stop offset="1" stop-color="#6A45C5"></stop>
      </linearGradient>
    </defs>
  </symbol>
  <symbol fill="none" xmlns="http://www.w3.org/2000/svg" viewBox="0 0 43 50" id="BusStop">
    <mask id="path-1-inside-1_752_55226" fill="white">
      <path fill-rule="evenodd" clip-rule="evenodd"
            d="M11.9525 2.13214C7.79912 3.9781 4.4781 7.29912 2.63214 11.4525C1.88165 13.1411 1.3814 14.9323 1.22369 16.7735C1.10805 18.1235 1 19.7258 1 21C1 22.2741 1.10805 23.8764 1.22369 25.2264C1.3814 27.0676 1.88165 28.8588 2.63214 30.5474C4.4781 34.7008 7.79922 38.0218 11.9526 39.8678C13.6411 40.6183 15.4323 41.1185 17.2733 41.2762C17.3424 41.2822 17.4121 41.2881 17.4825 41.2939L20.5695 49.1362C20.9022 49.9812 22.0979 49.9812 22.4305 49.1362L25.5177 41.2939C25.5879 41.2881 25.6576 41.2822 25.7266 41.2762C27.5676 41.1185 29.3587 40.6183 31.0472 39.8678C35.2007 38.0218 38.5218 34.7007 40.3678 30.5472C41.1183 28.8587 41.6185 27.0676 41.7762 25.2266C41.8919 23.8765 42 22.2741 42 21C42 19.7258 41.8919 18.1234 41.7762 16.7733C41.6185 14.9323 41.1183 13.1411 40.3678 11.4526C38.5219 7.29922 35.2008 3.9781 31.0474 2.13214C29.3588 1.38165 27.5676 0.8814 25.7264 0.723694C24.3764 0.608054 22.7741 0.5 21.5 0.5C20.2258 0.5 18.6235 0.608054 17.2735 0.723694C15.4323 0.8814 13.6411 1.38165 11.9525 2.13214Z">
      </path>
    </mask>
    <path fill-rule="evenodd" clip-rule="evenodd"
          d="M11.9525 2.13214C7.79912 3.9781 4.4781 7.29912 2.63214 11.4525C1.88165 13.1411 1.3814 14.9323 1.22369 16.7735C1.10805 18.1235 1 19.7258 1 21C1 22.2741 1.10805 23.8764 1.22369 25.2264C1.3814 27.0676 1.88165 28.8588 2.63214 30.5474C4.4781 34.7008 7.79922 38.0218 11.9526 39.8678C13.6411 40.6183 15.4323 41.1185 17.2733 41.2762C17.3424 41.2822 17.4121 41.2881 17.4825 41.2939L20.5695 49.1362C20.9022 49.9812 22.0979 49.9812 22.4305 49.1362L25.5177 41.2939C25.5879 41.2881 25.6576 41.2822 25.7266 41.2762C27.5676 41.1185 29.3587 40.6183 31.0472 39.8678C35.2007 38.0218 38.5218 34.7007 40.3678 30.5472C41.1183 28.8587 41.6185 27.0676 41.7762 25.2266C41.8919 23.8765 42 22.2741 42 21C42 19.7258 41.8919 18.1234 41.7762 16.7733C41.6185 14.9323 41.1183 13.1411 40.3678 11.4526C38.5219 7.29922 35.2008 3.9781 31.0474 2.13214C29.3588 1.38165 27.5676 0.8814 25.7264 0.723694C24.3764 0.608054 22.7741 0.5 21.5 0.5C20.2258 0.5 18.6235 0.608054 17.2735 0.723694C15.4323 0.8814 13.6411 1.38165 11.9525 2.13214Z"
          fill="url(#paint0_linear_752_55226)"></path>
    <path d="M2.63214 11.4525L1.71832 11.0464L2.63214 11.4525ZM11.9525 2.13214L12.3587 3.04595L11.9525 2.13214ZM1.22369 16.7735L2.22005 16.8588L1.22369 16.7735ZM1.22369 25.2264L0.227342 25.3118L1.22369 25.2264ZM2.63214 30.5474L1.71832 30.9535L2.63214 30.5474ZM11.9526 39.8678L11.5465 40.7816H11.5465L11.9526 39.8678ZM17.2733 41.2762L17.3587 40.2799H17.3587L17.2733 41.2762ZM17.4825 41.2939L18.413 40.9276L18.1852 40.3491L17.5656 40.2974L17.4825 41.2939ZM20.5695 49.1362L21.5001 48.7699L21.5 48.7699L20.5695 49.1362ZM22.4305 49.1362L21.5 48.7699L21.5 48.7699L22.4305 49.1362ZM25.5177 41.2939L25.4345 40.2974L24.8149 40.3491L24.5872 40.9276L25.5177 41.2939ZM25.7266 41.2762L25.6412 40.2799L25.7266 41.2762ZM31.0472 39.8678L31.4534 40.7816L31.0472 39.8678ZM40.3678 30.5472L39.454 30.1411L40.3678 30.5472ZM41.7762 25.2266L40.7799 25.1412V25.1412L41.7762 25.2266ZM41.7762 16.7733L40.7799 16.8587V16.8587L41.7762 16.7733ZM40.3678 11.4526L41.2816 11.0465L40.3678 11.4526ZM31.0474 2.13214L30.6412 3.04595L30.6412 3.04595L31.0474 2.13214ZM25.7264 0.723694L25.6411 1.72005L25.7264 0.723694ZM17.2735 0.723694L17.3588 1.72005L17.2735 0.723694ZM3.54595 11.8587C5.29136 7.93149 8.43149 4.79136 12.3587 3.04595L11.5464 1.21832C7.16675 3.16483 3.66483 6.66675 1.71832 11.0464L3.54595 11.8587ZM2.22005 16.8588C2.3671 15.142 2.83475 13.4589 3.54595 11.8587L1.71832 11.0464C0.928542 12.8234 0.395695 14.7227 0.227342 16.6881L2.22005 16.8588ZM2 21C2 19.7701 2.10496 18.2023 2.22005 16.8588L0.227342 16.6881C0.111146 18.0446 0 19.6816 0 21H2ZM2.22005 25.1411C2.10496 23.7976 2 22.2298 2 21H0C0 22.3183 0.111146 23.9553 0.227342 25.3118L2.22005 25.1411ZM3.54595 30.1412C2.83475 28.541 2.3671 26.8579 2.22005 25.1411L0.227342 25.3118C0.395695 27.2772 0.928542 29.1765 1.71832 30.9535L3.54595 30.1412ZM12.3588 38.954C8.43159 37.2086 5.29136 34.0684 3.54595 30.1412L1.71832 30.9535C3.66484 35.3332 7.16686 38.8351 11.5465 40.7816L12.3588 38.954ZM17.3587 40.2799C15.6419 40.1328 13.9589 39.6652 12.3588 38.954L11.5465 40.7816C13.3234 41.5714 15.2226 42.1042 17.1879 42.2726L17.3587 40.2799ZM17.5656 40.2974C17.496 40.2916 17.427 40.2858 17.3587 40.2799L17.1879 42.2726C17.2578 42.2786 17.3283 42.2845 17.3993 42.2905L17.5656 40.2974ZM16.552 41.6602L19.639 49.5025L21.5 48.7699L18.413 40.9276L16.552 41.6602ZM19.639 49.5025C20.3043 51.1924 22.6958 51.1924 23.3611 49.5025L21.5 48.7699H21.5001L19.639 49.5025ZM23.361 49.5025L26.4482 41.6602L24.5872 40.9276L21.5 48.7699L23.361 49.5025ZM25.6412 40.2799C25.5729 40.2858 25.504 40.2916 25.4345 40.2974L25.6008 42.2905C25.6718 42.2845 25.7422 42.2786 25.812 42.2726L25.6412 40.2799ZM30.6411 38.954C29.041 39.6652 27.358 40.1328 25.6412 40.2799L25.812 42.2726C27.7773 42.1042 29.6765 41.5714 31.4534 40.7816L30.6411 38.954ZM39.454 30.1411C37.7086 34.0684 34.5684 37.2086 30.6411 38.954L31.4534 40.7816C35.8331 38.8351 39.3351 35.3331 41.2816 30.9534L39.454 30.1411ZM40.7799 25.1412C40.6328 26.858 40.1652 28.541 39.454 30.1411L41.2816 30.9534C42.0714 29.1765 42.6042 27.2773 42.7726 25.312L40.7799 25.1412ZM41 21C41 22.2299 40.895 23.7977 40.7799 25.1412L42.7726 25.312C42.8888 23.9554 43 22.3183 43 21H41ZM40.7799 16.8587C40.895 18.2022 41 19.77 41 21H43C43 19.6816 42.8888 18.0445 42.7726 16.6879L40.7799 16.8587ZM39.454 11.8588C40.1652 13.4589 40.6328 15.1419 40.7799 16.8587L42.7726 16.6879C42.6042 14.7226 42.0714 12.8234 41.2816 11.0465L39.454 11.8588ZM30.6412 3.04595C34.5684 4.79136 37.7086 7.93159 39.454 11.8588L41.2816 11.0465C39.3351 6.66686 35.8332 3.16484 31.4535 1.21832L30.6412 3.04595ZM25.6411 1.72005C27.3579 1.8671 29.041 2.33475 30.6412 3.04595L31.4535 1.21832C29.6765 0.428542 27.7772 -0.104305 25.8118 -0.272658L25.6411 1.72005ZM21.5 1.5C22.7298 1.5 24.2976 1.60496 25.6411 1.72005L25.8118 -0.272658C24.4553 -0.388854 22.8183 -0.5 21.5 -0.5V1.5ZM17.3588 1.72005C18.7023 1.60496 20.2701 1.5 21.5 1.5V-0.5C20.1816 -0.5 18.5446 -0.388854 17.1881 -0.272658L17.3588 1.72005ZM12.3587 3.04595C13.9589 2.33475 15.642 1.8671 17.3588 1.72005L17.1881 -0.272658C15.2227 -0.104305 13.3234 0.428543 11.5464 1.21832L12.3587 3.04595Z"
          fill="white" mask="url(#path-1-inside-1_752_55226)"></path>
    <path d="M31.5286 15.5H30.5714V12.75C30.5714 12.0207 30.2704 11.3212 29.7346 10.8055C29.1988 10.2897 28.472 10 27.7143 10H16.2857C15.528 10 14.8012 10.2897 14.2654 10.8055C13.7296 11.3212 13.4286 12.0207 13.4286 12.75V15.5H12.4571C12.3359 15.5 12.2196 15.5464 12.1339 15.6289C12.0482 15.7114 12 15.8233 12 15.94V19.185C12 19.4284 12.2043 19.625 12.4571 19.625H13.4286V27.875C13.4286 28.6313 13.4286 29.25 14.8571 29.25V31.3125C14.8571 31.4948 14.9324 31.6697 15.0664 31.7986C15.2003 31.9276 15.382 32 15.5714 32H18.4286C18.618 32 18.7997 31.9276 18.9336 31.7986C19.0676 31.6697 19.1429 31.4948 19.1429 31.3125V29.25H24.8571V31.3125C24.8571 31.4948 24.9324 31.6697 25.0664 31.7986C25.2003 31.9276 25.382 32 25.5714 32H28.4286C28.618 32 28.7997 31.9276 28.9336 31.7986C29.0676 31.6697 29.1429 31.4948 29.1429 31.3125V29.25C30.5714 29.25 30.5714 28.6313 30.5714 27.875V19.625H31.5286C31.6536 19.625 31.7735 19.5772 31.8619 19.4921C31.9503 19.407 32 19.2916 32 19.1713C32 19.0509 31.9503 18.9355 31.8619 18.8504C31.7735 18.7653 31.6536 18.7175 31.5286 18.7175C31.4035 18.7175 31.2836 18.7653 31.1952 18.8504C31.1068 18.9355 31.0571 19.0509 31.0571 19.1713C31.0571 19.2916 31.1068 19.407 31.1952 19.4921C31.2836 19.5772 31.4035 19.625 31.5286 19.625C31.6536 19.625 31.7735 19.5772 31.8619 19.4921C31.9503 19.407 32 19.2916 32 19.1713V15.9537C32 15.8334 31.9503 15.718 31.8619 15.6329C31.7735 15.5478 31.6536 15.5 31.5286 15.5ZM19.1429 11.375H24.8571V12.75H19.1429V11.375ZM16.2857 26.5C15.9068 26.5 15.5435 26.3551 15.2756 26.0973C15.0077 25.8394 14.8571 25.4897 14.8571 25.125C14.8571 24.7603 15.0077 24.4106 15.2756 24.1527C15.5435 23.8949 15.9068 23.75 16.2857 23.75C16.6646 23.75 17.028 23.8949 17.2959 24.1527C17.5638 24.4106 17.7143 24.7603 17.7143 25.125C17.7143 25.4897 17.5638 25.8394 17.2959 26.0973C17.028 26.3551 16.6646 26.5 16.2857 26.5ZM14.8571 21V14.125H29.1429V21H14.8571ZM27.7143 26.5C27.3354 26.5 26.972 26.3551 26.7041 26.0973C26.4362 25.8394 26.2857 25.4897 26.2857 25.125C26.2857 24.7603 26.4362 24.4106 26.7041 24.1527C26.972 23.8949 27.3354 23.75 27.7143 23.75C28.0932 23.75 28.4565 23.8949 28.7244 24.1527C28.9923 24.4106 29.1429 24.7603 29.1429 25.125C29.1429 25.4897 28.9923 25.8394 28.7244 26.0973C28.4565 26.3551 28.0932 26.5 27.7143 26.5Z"
          fill="white"></path>
    <defs>
      <linearGradient id="paint0_linear_752_55226" x1="2.62699" y1="49.77" x2="53.833" y2="26.1139"
                      gradientUnits="userSpaceOnUse">
        <stop stop-color="#493289"></stop>
        <stop offset="1" stop-color="#6A45C5"></stop>
      </linearGradient>
    </defs>
  </symbol>
  <symbol fill="none" xmlns="http://www.w3.org/2000/svg" viewBox="0 0 16 16" id="Checkbox_checked">
    <rect width="16" height="16" rx="2" fill="#7550CC"></rect>
    <path fill-rule="evenodd" clip-rule="evenodd"
          d="M2.38746 9.22917C1.87085 8.69282 1.87085 7.82322 2.38746 7.28687C2.90408 6.75052 3.74169 6.75052 4.25831 7.28687L5.94207 9.03494C6.04539 9.14221 6.21292 9.14221 6.31624 9.03494L11.7417 3.40226C12.2583 2.86591 13.0959 2.86591 13.6125 3.40226C14.1292 3.93862 14.1292 4.80821 13.6125 5.34457L6.31624 12.9195C6.21292 13.0268 6.04539 13.0268 5.94207 12.9195L2.38746 9.22917Z"
          fill="white"></path>
    <path d="M2 1H14V-1H2V1ZM15 2V14H17V2H15ZM14 15H2V17H14V15ZM1 14V2H-1V14H1ZM2 15C1.44772 15 1 14.5523 1 14H-1C-1 15.6569 0.343146 17 2 17V15ZM15 14C15 14.5523 14.5523 15 14 15V17C15.6569 17 17 15.6569 17 14H15ZM14 1C14.5523 1 15 1.44772 15 2H17C17 0.343146 15.6569 -1 14 -1V1ZM2 -1C0.343146 -1 -1 0.343146 -1 2H1C1 1.44772 1.44772 1 2 1V-1Z"
          fill="#7550CC"></path>
  </symbol>
  <symbol fill="none" xmlns="http://www.w3.org/2000/svg" viewBox="0 0 16 16" id="Checkbox_default">
    <path d="M2 1H14V-1H2V1ZM15 2V14H17V2H15ZM14 15H2V17H14V15ZM1 14V2H-1V14H1ZM2 15C1.44772 15 1 14.5523 1 14H-1C-1 15.6569 0.343146 17 2 17V15ZM15 14C15 14.5523 14.5523 15 14 15V17C15.6569 17 17 15.6569 17 14H15ZM14 1C14.5523 1 15 1.44772 15 2H17C17 0.343146 15.6569 -1 14 -1V1ZM2 -1C0.343146 -1 -1 0.343146 -1 2H1C1 1.44772 1.44772 1 2 1V-1Z"
          fill="#7550CC"></path>
  </symbol>
  <symbol fill="none" xmlns="http://www.w3.org/2000/svg" viewBox="0 0 24 24" id="clock">
    <path d="M12 1.5C6.20156 1.5 1.5 6.20156 1.5 12C1.5 17.7984 6.20156 22.5 12 22.5C17.7984 22.5 22.5 17.7984 22.5 12C22.5 6.20156 17.7984 1.5 12 1.5ZM12 20.7188C7.18594 20.7188 3.28125 16.8141 3.28125 12C3.28125 7.18594 7.18594 3.28125 12 3.28125C16.8141 3.28125 20.7188 7.18594 20.7188 12C20.7188 16.8141 16.8141 20.7188 12 20.7188Z"
          fill="#7550CC"></path>
    <path d="M16.0945 14.9672L12.7523 12.5508V6.75C12.7523 6.64687 12.668 6.5625 12.5648 6.5625H11.4375C11.3344 6.5625 11.25 6.64687 11.25 6.75V13.2047C11.25 13.2656 11.2781 13.3219 11.3273 13.357L15.2039 16.1836C15.2883 16.2445 15.4055 16.2258 15.4664 16.1437L16.1367 15.2297C16.1977 15.143 16.1789 15.0258 16.0945 14.9672V14.9672Z"
          fill="#7550CC"></path>
  </symbol>
  <symbol fill="none" xmlns="http://www.w3.org/2000/svg" viewBox="0 0 30 30" id="command">
    <path d="M7.5 2.5C8.82608 2.5 10.0979 3.02678 11.0355 3.96447C11.9732 4.90215 12.5 6.17392 12.5 7.5V10H17.5V7.5C17.5 6.17392 18.0268 4.90215 18.9645 3.96447C19.9021 3.02678 21.1739 2.5 22.5 2.5C23.8261 2.5 25.0979 3.02678 26.0355 3.96447C26.9732 4.90215 27.5 6.17392 27.5 7.5C27.5 8.82608 26.9732 10.0979 26.0355 11.0355C25.0979 11.9732 23.8261 12.5 22.5 12.5H20V17.5H22.5C23.8261 17.5 25.0979 18.0268 26.0355 18.9645C26.9732 19.9021 27.5 21.1739 27.5 22.5C27.5 23.8261 26.9732 25.0979 26.0355 26.0355C25.0979 26.9732 23.8261 27.5 22.5 27.5C21.1739 27.5 19.9021 26.9732 18.9645 26.0355C18.0268 25.0979 17.5 23.8261 17.5 22.5V20H12.5V22.5C12.5 23.8261 11.9732 25.0979 11.0355 26.0355C10.0979 26.9732 8.82608 27.5 7.5 27.5C6.17392 27.5 4.90215 26.9732 3.96447 26.0355C3.02678 25.0979 2.5 23.8261 2.5 22.5C2.5 21.1739 3.02678 19.9021 3.96447 18.9645C4.90215 18.0268 6.17392 17.5 7.5 17.5H10V12.5H7.5C6.17392 12.5 4.90215 11.9732 3.96447 11.0355C3.02678 10.0979 2.5 8.82608 2.5 7.5C2.5 6.17392 3.02678 4.90215 3.96447 3.96447C4.90215 3.02678 6.17392 2.5 7.5 2.5ZM20 22.5C20 23.163 20.2634 23.7989 20.7322 24.2678C21.2011 24.7366 21.837 25 22.5 25C23.163 25 23.7989 24.7366 24.2678 24.2678C24.7366 23.7989 25 23.163 25 22.5C25 21.837 24.7366 21.2011 24.2678 20.7322C23.7989 20.2634 23.163 20 22.5 20H20V22.5ZM17.5 12.5H12.5V17.5H17.5V12.5ZM7.5 20C6.83696 20 6.20107 20.2634 5.73223 20.7322C5.26339 21.2011 5 21.837 5 22.5C5 23.163 5.26339 23.7989 5.73223 24.2678C6.20107 24.7366 6.83696 25 7.5 25C8.16304 25 8.79893 24.7366 9.26777 24.2678C9.73661 23.7989 10 23.163 10 22.5V20H7.5ZM10 7.5C10 6.83696 9.73661 6.20107 9.26777 5.73223C8.79893 5.26339 8.16304 5 7.5 5C6.83696 5 6.20107 5.26339 5.73223 5.73223C5.26339 6.20107 5 6.83696 5 7.5C5 8.16304 5.26339 8.79893 5.73223 9.26777C6.20107 9.73661 6.83696 10 7.5 10H10V7.5ZM22.5 10C23.163 10 23.7989 9.73661 24.2678 9.26777C24.7366 8.79893 25 8.16304 25 7.5C25 6.83696 24.7366 6.20107 24.2678 5.73223C23.7989 5.26339 23.163 5 22.5 5C21.837 5 21.2011 5.26339 20.7322 5.73223C20.2634 6.20107 20 6.83696 20 7.5V10H22.5Z"
          fill="#545963"></path>
  </symbol>
  <symbol fill="none" xmlns="http://www.w3.org/2000/svg" viewBox="0 0 32 32" id="Keyboard-delete">
    <path fill-rule="evenodd" clip-rule="evenodd"
          d="M10.5858 7H11H27H28V8V24V25H27H11H10.5858L10.2929 24.7071L2.29292 16.7071L1.58582 16L2.29292 15.2929L10.2929 7.29289L10.5858 7ZM11.4142 9L4.41424 16L11.4142 23H26V9H11.4142ZM15 11.5858L15.7071 12.2929L18 14.5858L20.2929 12.2929L21 11.5858L22.4142 13L21.7071 13.7071L19.4142 16L21.7071 18.2929L22.4142 19L21 20.4142L20.2929 19.7071L18 17.4142L15.7071 19.7071L15 20.4142L13.5858 19L14.2929 18.2929L16.5858 16L14.2929 13.7071L13.5858 13L15 11.5858Z"
          fill="white"></path>
  </symbol>
  <symbol xmlns="http://www.w3.org/2000/svg" viewBox="0 0 16 16" id="location">
    <path
          d="M7.93488 0C11.5718 0 14.5198 2.94801 14.5198 6.58491C14.5198 9.36745 12.5646 12.3999 8.70481 15.7146C8.49019 15.899 8.21655 16.0002 7.93362 16C7.65068 15.9998 7.37722 15.898 7.16293 15.7133L6.90764 15.4917C3.21874 12.2635 1.34998 9.30532 1.34998 6.58491C1.34998 2.94801 4.29799 0 7.93488 0ZM7.93488 4.05225C7.26318 4.05225 6.61899 4.31908 6.14402 4.79405C5.66906 5.26901 5.40222 5.9132 5.40222 6.58491C5.40222 7.25661 5.66906 7.9008 6.14402 8.37576C6.61899 8.85073 7.26318 9.11756 7.93488 9.11756C8.60658 9.11756 9.25077 8.85073 9.72574 8.37576C10.2007 7.9008 10.4675 7.25661 10.4675 6.58491C10.4675 5.9132 10.2007 5.26901 9.72574 4.79405C9.25077 4.31908 8.60658 4.05225 7.93488 4.05225Z">
    </path>
  </symbol>
  <symbol fill="none" xmlns="http://www.w3.org/2000/svg" viewBox="0 0 30 30" id="keyboard">
    <path d="M26.25 24.375H3.75C3.25272 24.375 2.77581 24.1775 2.42417 23.8258C2.07254 23.4742 1.875 22.9973 1.875 22.5V9.375C1.875 8.87772 2.07254 8.40081 2.42417 8.04918C2.77581 7.69754 3.25272 7.5 3.75 7.5H26.25C26.7473 7.5 27.2242 7.69754 27.5758 8.04918C27.9275 8.40081 28.125 8.87772 28.125 9.375V22.5C28.125 22.9973 27.9275 23.4742 27.5758 23.8258C27.2242 24.1775 26.7473 24.375 26.25 24.375ZM3.75 9.375V22.5H26.25V9.375H3.75Z"
          fill="#545963"></path>
    <path d="M9.375 18.75H19.6875V20.625H9.375V18.75Z" fill="#545963"></path>
    <path d="M5.625 11.25H7.5V13.125H5.625V11.25Z" fill="#545963"></path>
    <path d="M9.375 11.25H11.25V13.125H9.375V11.25Z" fill="#545963"></path>
    <path d="M13.125 11.25H15V13.125H13.125V11.25Z" fill="#545963"></path>
    <path d="M16.875 11.25H18.75V13.125H16.875V11.25Z" fill="#545963"></path>
    <path d="M5.625 18.75H7.5V20.625H5.625V18.75Z" fill="#545963"></path>
    <path d="M5.625 15H7.5V16.875H5.625V15Z" fill="#545963"></path>
    <path d="M9.375 15H11.25V16.875H9.375V15Z" fill="#545963"></path>
    <path d="M13.125 15H15V16.875H13.125V15Z" fill="#545963"></path>
    <path d="M20.625 11.25H24.375V13.125H20.625V11.25Z" fill="#545963"></path>
    <path d="M20.625 15H24.375V16.875H20.625V15Z" fill="#545963"></path>
    <path d="M16.875 15H18.75V16.875H16.875V15Z" fill="#545963"></path>
    <path d="M21.5625 18.75H24.375V20.625H21.5625V18.75Z" fill="#545963"></path>
  </symbol>
  <symbol fill="none" xmlns="http://www.w3.org/2000/svg" viewBox="0 0 16 16" id="Logo-KaohsiungMetro">
    <g clip-path="url(#clip0_752_55288)">
      <path fill-rule="evenodd" clip-rule="evenodd"
            d="M9.67677 7.95201L10.3124 11.2063H7.76111L7.35384 9.129L7.35525 9.12971L8.22097 8.63703H3.01538L3.10149 8.46587H4.77222L6.44083 5.21158H8.6113L7.94816 6.50962L5.97145 7.78085H12.2542L12.1684 7.95201H9.67677ZM13.0278 5.29699L10.209 7.18264H7.59594L10.4158 5.29699H13.0278ZM6.57989 9.189L5.55006 11.2063H3.3796L4.40977 9.189H6.57989Z"
            fill="#005296"></path>
      <path fill-rule="evenodd" clip-rule="evenodd"
            d="M15.9998 8.02781C15.96 8.10863 15.918 8.1898 15.8731 8.27133C14.237 11.2496 9.90031 13.6724 6.21969 13.665C2.73283 13.658 1.05257 11.472 2.27615 8.71001C1.34726 10.9931 2.78294 12.7894 5.65925 12.7894C8.59485 12.7894 12.4096 10.8374 13.6861 8.02781H15.9998Z"
            fill="#0094DE"></path>
      <path fill-rule="evenodd" clip-rule="evenodd"
            d="M0 8.63721C1.64179 5.31481 6.23365 2.99294 9.78015 3C13.267 3.00706 14.9469 5.19305 13.7237 7.95501C14.6526 5.67196 13.2169 3.87595 10.3406 3.87595C7.40499 3.87595 3.59027 5.8276 2.31375 8.63721H0Z"
            fill="#0094DE"></path>
    </g>
    <defs>
      <clipPath id="clip0_752_55288">
        <rect width="16" height="10.665" fill="white" transform="translate(0 3)"></rect>
      </clipPath>
    </defs>
  </symbol>
  <symbol fill="none" xmlns="http://www.w3.org/2000/svg" viewBox="0 0 16 16" id="manwalking">
    <path d="M10.4167 2.66659C10.4167 3.02021 10.2762 3.35935 10.0261 3.60939C9.77609 3.85944 9.43696 3.99992 9.08333 3.99992C8.72971 3.99992 8.39057 3.85944 8.14052 3.60939C7.89048 3.35935 7.75 3.02021 7.75 2.66659C7.75 2.31296 7.89048 1.97382 8.14052 1.72378C8.39057 1.47373 8.72971 1.33325 9.08333 1.33325C9.43696 1.33325 9.77609 1.47373 10.0261 1.72378C10.2762 1.97382 10.4167 2.31296 10.4167 2.66659Z"
          fill="#A6AAB4"></path>
    <path d="M8.5643 9.46564L10.2953 11.1736C10.3617 11.2391 10.4136 11.3178 10.4476 11.4046L11.3706 13.7563C11.4353 13.9209 11.4318 14.1045 11.3611 14.2666C11.2904 14.4286 11.1582 14.556 10.9936 14.6206C10.829 14.6853 10.6455 14.6819 10.4834 14.6111C10.3213 14.5404 10.1939 14.4083 10.1293 14.2436L9.25797 12.0233L6.28197 9.08664C6.21005 9.01573 6.15519 8.9294 6.12153 8.83418C6.08786 8.73896 6.07627 8.63733 6.08763 8.53697L6.32597 6.43031C5.7513 7.00164 5.30797 7.80464 4.9683 8.86897C4.9429 8.95382 4.90086 9.03275 4.84462 9.10117C4.78837 9.16958 4.71907 9.2261 4.64074 9.26743C4.56241 9.30876 4.47663 9.33407 4.38841 9.34188C4.30019 9.34968 4.2113 9.33984 4.12693 9.31291C4.04256 9.28598 3.9644 9.24251 3.89702 9.18504C3.82963 9.12757 3.77437 9.05725 3.73447 8.97819C3.69457 8.89912 3.67082 8.8129 3.6646 8.72455C3.65839 8.63621 3.66985 8.54751 3.6983 8.46364C4.32163 6.51031 5.35663 5.04831 7.0933 4.37797L7.10097 4.37497C7.5433 4.21064 8.0033 4.22397 8.4133 4.43564C8.80697 4.63931 9.0873 4.99097 9.27097 5.38497C9.3483 5.55097 9.41963 5.70597 9.48697 5.85164C9.64963 6.20431 9.7863 6.50164 9.91797 6.76231C10.1023 7.12897 10.2506 7.37231 10.3973 7.54264C10.5333 7.70097 10.6683 7.79831 10.8406 7.86564C11.026 7.93797 11.2856 7.98797 11.6866 7.99997C11.7747 8.00174 11.8616 8.02095 11.9422 8.05649C12.0228 8.09203 12.0956 8.1432 12.1563 8.20704C12.2171 8.27088 12.2645 8.34612 12.296 8.42842C12.3275 8.51072 12.3423 8.59844 12.3397 8.68651C12.337 8.77458 12.3169 8.86125 12.2806 8.94151C12.2442 9.02177 12.1924 9.09404 12.1279 9.15412C12.0635 9.2142 11.9878 9.26092 11.9051 9.29156C11.8225 9.3222 11.7347 9.33616 11.6466 9.33264C11.165 9.31831 10.7373 9.25664 10.3556 9.10764C9.9613 8.95364 9.6503 8.71931 9.38563 8.41097C9.21897 8.21697 9.0723 7.99531 8.93563 7.75431L8.5643 9.46564Z"
          fill="#A6AAB4"></path>
    <path d="M6.08764 10.0732L7.19264 11.1332L6.68397 12.8489C6.64463 12.9817 6.56495 13.0989 6.45597 13.1842L4.74464 14.5252C4.67569 14.5792 4.59679 14.6191 4.51243 14.6426C4.42807 14.6661 4.33991 14.6728 4.25298 14.6622C4.16605 14.6516 4.08205 14.6241 4.00578 14.581C3.92951 14.538 3.86247 14.4804 3.80847 14.4114C3.75448 14.3425 3.71459 14.2636 3.69109 14.1792C3.66759 14.0948 3.66093 14.0067 3.6715 13.9197C3.68207 13.8328 3.70966 13.7488 3.75269 13.6726C3.79573 13.5963 3.85336 13.5292 3.92231 13.4752L5.4663 12.2659L5.9313 10.6959L6.08764 10.0732Z"
          fill="#A6AAB4"></path>
  </symbol>
  <symbol fill="none" xmlns="http://www.w3.org/2000/svg" viewBox="0 0 24 24" id="moreInfo">
    <path d="M7.5 13.5C7.89782 13.5 8.27936 13.342 8.56066 13.0607C8.84196 12.7794 9 12.3978 9 12C9 11.6022 8.84196 11.2206 8.56066 10.9393C8.27936 10.658 7.89782 10.5 7.5 10.5C7.10218 10.5 6.72064 10.658 6.43934 10.9393C6.15804 11.2206 6 11.6022 6 12C6 12.3978 6.15804 12.7794 6.43934 13.0607C6.72064 13.342 7.10218 13.5 7.5 13.5ZM12 13.5C12.3978 13.5 12.7794 13.342 13.0607 13.0607C13.342 12.7794 13.5 12.3978 13.5 12C13.5 11.6022 13.342 11.2206 13.0607 10.9393C12.7794 10.658 12.3978 10.5 12 10.5C11.6022 10.5 11.2206 10.658 10.9393 10.9393C10.658 11.2206 10.5 11.6022 10.5 12C10.5 12.3978 10.658 12.7794 10.9393 13.0607C11.2206 13.342 11.6022 13.5 12 13.5ZM18 12C18 12.3978 17.842 12.7794 17.5607 13.0607C17.2794 13.342 16.8978 13.5 16.5 13.5C16.1022 13.5 15.7206 13.342 15.4393 13.0607C15.158 12.7794 15 12.3978 15 12C15 11.6022 15.158 11.2206 15.4393 10.9393C15.7206 10.658 16.1022 10.5 16.5 10.5C16.8978 10.5 17.2794 10.658 17.5607 10.9393C17.842 11.2206 18 11.6022 18 12ZM22.5 12C22.5 17.799 17.799 22.5 12 22.5C6.201 22.5 1.5 17.799 1.5 12C1.5 6.201 6.201 1.5 12 1.5C17.799 1.5 22.5 6.201 22.5 12ZM21 12C21 7.02975 16.9702 3 12 3C7.02975 3 3 7.02975 3 12C3 16.9702 7.02975 21 12 21C16.9702 21 21 16.9702 21 12Z"
          fill="#7550CC"></path>
  </symbol>
  <symbol fill="none" xmlns="http://www.w3.org/2000/svg" viewBox="0 0 17 17" id="positioning">
    <path fill-rule="evenodd" clip-rule="evenodd"
          d="M1.47021 7.86395L15.9608 1L9.09683 15.4906L7.57151 9.38928L1.47021 7.86395Z" fill="#606470"
          stroke="#606470" stroke-width="1.5" stroke-linecap="round" stroke-linejoin="round"></path>
  </symbol>
  <symbol fill="none" xmlns="http://www.w3.org/2000/svg" viewBox="0 0 13 13" id="Point-stop">
    <circle cx="6.5" cy="6.5" r="5" fill="white" stroke="#545963" stroke-width="3"></circle>
  </symbol>
  <symbol fill="none" xmlns="http://www.w3.org/2000/svg" viewBox="0 0 16 16" id="Refresh">
    <path d="M15.3334 2.66675V6.66675H11.3334" stroke="#545963" stroke-linecap="round" stroke-linejoin="round"></path>
    <path d="M0.666626 13.3333V9.33325H4.66663" stroke="#545963" stroke-linecap="round" stroke-linejoin="round"></path>
    <path d="M2.33996 5.99989C2.67807 5.04441 3.25271 4.19016 4.01027 3.51683C4.76783 2.84351 5.6836 2.37306 6.67215 2.14939C7.6607 1.92572 8.6898 1.95612 9.66342 2.23774C10.637 2.51936 11.5235 3.04303 12.24 3.75989L15.3333 6.66655M0.666626 9.33322L3.75996 12.2399C4.47646 12.9567 5.36287 13.4804 6.3365 13.762C7.31012 14.0437 8.33922 14.0741 9.32777 13.8504C10.3163 13.6267 11.2321 13.1563 11.9896 12.4829C12.7472 11.8096 13.3218 10.9554 13.66 9.99989"
          stroke="#545963" stroke-linecap="round" stroke-linejoin="round"></path>
  </symbol>
  <symbol fill="none" xmlns="http://www.w3.org/2000/svg" viewBox="0 0 16 16" id="sort">
    <path d="M5.33551 2.66943L5.25751 2.6741C5.09534 2.69321 4.94582 2.77116 4.83732 2.89319C4.72881 3.01521 4.66886 3.17281 4.66884 3.3361V11.0561L3.14017 9.52943L3.07751 9.47343C2.94356 9.36862 2.77461 9.31896 2.60526 9.33463C2.4359 9.3503 2.27893 9.43011 2.16648 9.55771C2.05404 9.68532 1.99462 9.85108 2.00038 10.0211C2.00615 10.1911 2.07667 10.3524 2.19751 10.4721L4.86684 13.1388L4.92951 13.1941C5.05785 13.2935 5.21807 13.3427 5.38009 13.3324C5.54211 13.3221 5.6948 13.253 5.80951 13.1381L8.47351 10.4714L8.52951 10.4088C8.62892 10.2804 8.67809 10.1202 8.66778 9.95819C8.65747 9.79617 8.58839 9.64348 8.47351 9.52877L8.41017 9.47343C8.28183 9.37402 8.12161 9.32485 7.95959 9.33516C7.79757 9.34547 7.64488 9.41455 7.53017 9.52943L6.00217 11.0588V3.3361L5.99751 3.2581C5.9784 3.09593 5.90044 2.94642 5.77842 2.83791C5.6564 2.7294 5.49879 2.66946 5.33551 2.66943ZM8.33551 3.33343C8.1587 3.33343 7.98913 3.40367 7.8641 3.5287C7.73908 3.65372 7.66884 3.82329 7.66884 4.0001C7.66884 4.17691 7.73908 4.34648 7.8641 4.4715C7.98913 4.59653 8.1587 4.66677 8.33551 4.66677H13.6688C13.8457 4.66677 14.0152 4.59653 14.1402 4.4715C14.2653 4.34648 14.3355 4.17691 14.3355 4.0001C14.3355 3.82329 14.2653 3.65372 14.1402 3.5287C14.0152 3.40367 13.8457 3.33343 13.6688 3.33343H8.33551ZM8.33551 5.33343C8.1587 5.33343 7.98913 5.40367 7.8641 5.5287C7.73908 5.65372 7.66884 5.82329 7.66884 6.0001C7.66884 6.17691 7.73908 6.34648 7.8641 6.4715C7.98913 6.59653 8.1587 6.66677 8.33551 6.66677H11.6688C11.8457 6.66677 12.0152 6.59653 12.1402 6.4715C12.2653 6.34648 12.3355 6.17691 12.3355 6.0001C12.3355 5.82329 12.2653 5.65372 12.1402 5.5287C12.0152 5.40367 11.8457 5.33343 11.6688 5.33343H8.33551ZM7.66884 8.0001C7.66884 7.82329 7.73908 7.65372 7.8641 7.5287C7.98913 7.40367 8.1587 7.33343 8.33551 7.33343H9.66884C9.84565 7.33343 10.0152 7.40367 10.1402 7.5287C10.2653 7.65372 10.3355 7.82329 10.3355 8.0001C10.3355 8.17691 10.2653 8.34648 10.1402 8.4715C10.0152 8.59653 9.84565 8.66677 9.66884 8.66677H8.33551C8.1587 8.66677 7.98913 8.59653 7.8641 8.4715C7.73908 8.34648 7.66884 8.17691 7.66884 8.0001Z"
          fill="#7550CC"></path>
  </symbol>
  <symbol fill="none" xmlns="http://www.w3.org/2000/svg" viewBox="0 0 24 24" id="search">
    <path d="M11 19C15.4183 19 19 15.4183 19 11C19 6.58172 15.4183 3 11 3C6.58172 3 3 6.58172 3 11C3 15.4183 6.58172 19 11 19Z"
          stroke="#7550CC" stroke-width="2" stroke-linecap="round" stroke-linejoin="round"></path>
    <path d="M21 20.9999L16.65 16.6499" stroke="#7550CC" stroke-width="2" stroke-linecap="round"
          stroke-linejoin="round"></path>
  </symbol>
  <symbol fill="none" xmlns="http://www.w3.org/2000/svg" viewBox="0 0 24 24" id="StartingPoint">
    <circle cx="12" cy="12.5" r="6.5" stroke="#A6AAB4" stroke-width="2"></circle>
    <circle cx="12" cy="12.5" r="1.5" fill="#A6AAB4"></circle>
  </symbol>
  <symbol fill="none" xmlns="http://www.w3.org/2000/svg" viewBox="0 0 24 25" id="Switch">
    <path d="M6.46808 1V18.7128M6.46808 1L10.9362 5.46808M6.46808 1L2 5.46808" stroke="#7550CC" stroke-width="1.33"
          stroke-linecap="round" stroke-linejoin="round"></path>
    <path d="M17.4787 23.4998V6.98389M17.4787 23.4998L21.9468 19.0318M17.4787 23.4998L13.0106 19.0318" stroke="#7550CC"
          stroke-width="1.33" stroke-linecap="round" stroke-linejoin="round"></path>
  </symbol>
</svg>