<svg width="76" height="72" viewBox="0 0 76 72" fill="none" xmlns="http://www.w3.org/2000/svg">
<g filter="url(#filter0_dd_752_55213)">
<g clip-path="url(#clip0_752_55213)">
<path d="M70 2H6V62H70V2Z" fill="url(#paint0_linear_752_55213)"/>
<g clip-path="url(#clip1_752_55213)">
<rect x="35" y="6" width="43" height="4" transform="rotate(-180 35 6)" fill="#7550CC"/>
<rect x="35" y="11" width="43" height="4" transform="rotate(-180 35 11)" fill="#7550CC"/>
<rect x="35" y="16" width="43" height="4" transform="rotate(-180 35 16)" fill="#7550CC"/>
<rect x="35" y="21" width="43" height="4" transform="rotate(-180 35 21)" fill="#7550CC"/>
<rect x="35" y="26" width="43" height="4" transform="rotate(-180 35 26)" fill="#7550CC"/>
<rect x="35" y="31" width="43" height="4" transform="rotate(-180 35 31)" fill="#7550CC"/>
</g>
<path d="M32 32H50" stroke="white" stroke-width="2" stroke-linecap="round" stroke-linejoin="round"/>
<path d="M32 26H50" stroke="white" stroke-width="2" stroke-linecap="round" stroke-linejoin="round"/>
<path d="M32 38H50" stroke="white" stroke-width="2" stroke-linecap="round" stroke-linejoin="round"/>
</g>
</g>
<defs>
<filter id="filter0_dd_752_55213" x="0" y="0" width="76" height="72" filterUnits="userSpaceOnUse" color-interpolation-filters="sRGB">
<feFlood flood-opacity="0" result="BackgroundImageFix"/>
<feColorMatrix in="SourceAlpha" type="matrix" values="0 0 0 0 0 0 0 0 0 0 0 0 0 0 0 0 0 0 127 0" result="hardAlpha"/>
<feMorphology radius="2" operator="erode" in="SourceAlpha" result="effect1_dropShadow_752_55213"/>
<feOffset dy="2"/>
<feGaussianBlur stdDeviation="2"/>
<feColorMatrix type="matrix" values="0 0 0 0 0.0627451 0 0 0 0 0.0941176 0 0 0 0 0.156863 0 0 0 0.06 0"/>
<feBlend mode="normal" in2="BackgroundImageFix" result="effect1_dropShadow_752_55213"/>
<feColorMatrix in="SourceAlpha" type="matrix" values="0 0 0 0 0 0 0 0 0 0 0 0 0 0 0 0 0 0 127 0" result="hardAlpha"/>
<feMorphology radius="2" operator="erode" in="SourceAlpha" result="effect2_dropShadow_752_55213"/>
<feOffset dy="4"/>
<feGaussianBlur stdDeviation="4"/>
<feColorMatrix type="matrix" values="0 0 0 0 0.0627451 0 0 0 0 0.0941176 0 0 0 0 0.156863 0 0 0 0.1 0"/>
<feBlend mode="normal" in2="effect1_dropShadow_752_55213" result="effect2_dropShadow_752_55213"/>
<feBlend mode="normal" in="SourceGraphic" in2="effect2_dropShadow_752_55213" result="shape"/>
</filter>
<linearGradient id="paint0_linear_752_55213" x1="8.53968" y1="62" x2="80.3491" y2="19.4764" gradientUnits="userSpaceOnUse">
<stop stop-color="#493289"/>
<stop offset="1" stop-color="#6A45C5"/>
</linearGradient>
<clipPath id="clip0_752_55213">
<path d="M6 2H70V62H66C32.8629 62 6 35.1371 6 2V2Z" fill="white"/>
</clipPath>
<clipPath id="clip1_752_55213">
<path d="M35 2C35 18.0163 22.0163 31 6 31L6 2L35 2Z" fill="white"/>
</clipPath>
</defs>
</svg>
