<svg width="0" height="0" class="hidden">
  <symbol fill="none" xmlns="http://www.w3.org/2000/svg" viewBox="0 0 16 16" id="arrow-down">
    <path d="M8.00002 10.6668C7.84425 10.6671 7.6933 10.6128 7.57335 10.5134L3.57335 7.1801C3.43721 7.06694 3.35159 6.90434 3.33534 6.72805C3.31909 6.55177 3.37353 6.37625 3.48669 6.2401C3.59985 6.10396 3.76245 6.01834 3.93874 6.00209C4.11502 5.98584 4.29054 6.04028 4.42669 6.15344L8.00002 9.1401L11.5734 6.2601C11.6415 6.20473 11.72 6.16337 11.8042 6.13842C11.8885 6.11346 11.9768 6.1054 12.0641 6.11469C12.1515 6.12398 12.2361 6.15045 12.3132 6.19257C12.3903 6.23468 12.4583 6.29162 12.5134 6.3601C12.5744 6.42865 12.6206 6.50907 12.6492 6.59632C12.6777 6.68357 12.6879 6.77577 12.6791 6.86714C12.6704 6.95852 12.6428 7.0471 12.5983 7.12734C12.5537 7.20757 12.493 7.27774 12.42 7.33344L8.42002 10.5534C8.29663 10.6371 8.14876 10.677 8.00002 10.6668Z" fill="#7550CC"></path>
  </symbol>
  <symbol fill="none" xmlns="http://www.w3.org/2000/svg" viewBox="0 0 24 24" id="arrow-right">
    <path d="M9 18L15 12L9 6" stroke="#A6AAB4" stroke-width="1.33" stroke-linecap="round" stroke-linejoin="round"></path>
  </symbol>
  <symbol fill="none" xmlns="http://www.w3.org/2000/svg" viewBox="0 0 16 16" id="arrow-up">
    <path d="M8.01463 6.00071C8.1704 6.00041 8.32135 6.05466 8.44129 6.15404L12.4413 9.48738C12.5774 9.60054 12.6631 9.76314 12.6793 9.93943C12.6956 10.1157 12.6411 10.2912 12.528 10.4274C12.4148 10.5635 12.2522 10.6491 12.0759 10.6654C11.8996 10.6816 11.7241 10.6272 11.588 10.514L8.01463 7.52738L4.44129 10.4074C4.3731 10.4628 4.29464 10.5041 4.21041 10.5291C4.12619 10.554 4.03786 10.5621 3.95051 10.5528C3.86315 10.5435 3.7785 10.517 3.70141 10.4749C3.62432 10.4328 3.55631 10.3759 3.50129 10.3074C3.44024 10.2388 3.394 10.1584 3.36547 10.0712C3.33694 9.98391 3.32674 9.89171 3.3355 9.80034C3.34427 9.70896 3.3718 9.62038 3.41639 9.54014C3.46098 9.45991 3.52166 9.38974 3.59463 9.33404L7.59463 6.11404C7.71802 6.03037 7.86589 5.99046 8.01463 6.00071Z" fill="#7550CC"></path>
  </symbol>
  <symbol fill="none" xmlns="http://www.w3.org/2000/svg" viewBox="0 0 24 24" id="back">
    <path fill-rule="evenodd" clip-rule="evenodd" d="M22.5 12C22.5 11.8011 22.421 11.6103 22.2803 11.4696C22.1397 11.329 21.9489 11.25 21.75 11.25H4.0605L8.781 6.53097C8.85073 6.46124 8.90604 6.37846 8.94378 6.28735C8.98152 6.19624 9.00094 6.09859 9.00094 5.99997C9.00094 5.90135 8.98152 5.8037 8.94378 5.7126C8.90604 5.62149 8.85073 5.5387 8.781 5.46897C8.71126 5.39924 8.62848 5.34392 8.53737 5.30619C8.44626 5.26845 8.34861 5.24902 8.25 5.24902C8.15138 5.24902 8.05373 5.26845 7.96262 5.30619C7.87151 5.34392 7.78873 5.39924 7.719 5.46897L1.719 11.469C1.64915 11.5386 1.59374 11.6214 1.55593 11.7125C1.51812 11.8036 1.49866 11.9013 1.49866 12C1.49866 12.0986 1.51812 12.1963 1.55593 12.2874C1.59374 12.3785 1.64915 12.4613 1.719 12.531L7.719 18.531C7.78873 18.6007 7.87151 18.656 7.96262 18.6938C8.05373 18.7315 8.15138 18.7509 8.25 18.7509C8.34861 18.7509 8.44626 18.7315 8.53737 18.6938C8.62848 18.656 8.71126 18.6007 8.781 18.531C8.85073 18.4612 8.90604 18.3785 8.94378 18.2873C8.98152 18.1962 9.00094 18.0986 9.00094 18C9.00094 17.9014 8.98152 17.8037 8.94378 17.7126C8.90604 17.6215 8.85073 17.5387 8.781 17.469L4.0605 12.75H21.75C21.9489 12.75 22.1397 12.671 22.2803 12.5303C22.421 12.3896 22.5 12.1989 22.5 12Z" fill="#A6AAB4"></path>
  </symbol>
  <symbol fill="none" xmlns="http://www.w3.org/2000/svg" viewBox="0 0 16 16" id="bus">
    <path d="M2.66663 10.6666C2.66663 11.2533 2.92663 11.7799 3.33329 12.1466V13.9999H5.33329V12.6666H10.6666V13.9999H12.6666V12.1466C13.0733 11.7799 13.3333 11.2533 13.3333 10.6666V3.99992C13.3333 1.66659 10.9466 1.33325 7.99996 1.33325C5.05329 1.33325 2.66663 1.66659 2.66663 3.99992V10.6666ZM4.99996 11.3333C4.44663 11.3333 3.99996 10.8866 3.99996 10.3333C3.99996 9.77992 4.44663 9.33325 4.99996 9.33325C5.55329 9.33325 5.99996 9.77992 5.99996 10.3333C5.99996 10.8866 5.55329 11.3333 4.99996 11.3333ZM11 11.3333C10.4466 11.3333 9.99996 10.8866 9.99996 10.3333C9.99996 9.77992 10.4466 9.33325 11 9.33325C11.5533 9.33325 12 9.77992 12 10.3333C12 10.8866 11.5533 11.3333 11 11.3333ZM12 7.33325H3.99996V3.99992H12V7.33325Z" fill="#7550CC"></path>
  </symbol>
  <symbol fill="none" xmlns="http://www.w3.org/2000/svg" viewBox="0 0 16 16" id="Checkbox_checked">
    <rect width="16" height="16" rx="2" fill="#7550CC"></rect>
    <path fill-rule="evenodd" clip-rule="evenodd" d="M2.38746 9.22917C1.87085 8.69282 1.87085 7.82322 2.38746 7.28687C2.90408 6.75052 3.74169 6.75052 4.25831 7.28687L5.94207 9.03494C6.04539 9.14221 6.21292 9.14221 6.31624 9.03494L11.7417 3.40226C12.2583 2.86591 13.0959 2.86591 13.6125 3.40226C14.1292 3.93862 14.1292 4.80821 13.6125 5.34457L6.31624 12.9195C6.21292 13.0268 6.04539 13.0268 5.94207 12.9195L2.38746 9.22917Z" fill="white"></path>
    <path d="M2 1H14V-1H2V1ZM15 2V14H17V2H15ZM14 15H2V17H14V15ZM1 14V2H-1V14H1ZM2 15C1.44772 15 1 14.5523 1 14H-1C-1 15.6569 0.343146 17 2 17V15ZM15 14C15 14.5523 14.5523 15 14 15V17C15.6569 17 17 15.6569 17 14H15ZM14 1C14.5523 1 15 1.44772 15 2H17C17 0.343146 15.6569 -1 14 -1V1ZM2 -1C0.343146 -1 -1 0.343146 -1 2H1C1 1.44772 1.44772 1 2 1V-1Z" fill="#7550CC"></path>
  </symbol>
  <symbol fill="none" xmlns="http://www.w3.org/2000/svg" viewBox="0 0 16 16" id="Checkbox_default">
    <path d="M2 1H14V-1H2V1ZM15 2V14H17V2H15ZM14 15H2V17H14V15ZM1 14V2H-1V14H1ZM2 15C1.44772 15 1 14.5523 1 14H-1C-1 15.6569 0.343146 17 2 17V15ZM15 14C15 14.5523 14.5523 15 14 15V17C15.6569 17 17 15.6569 17 14H15ZM14 1C14.5523 1 15 1.44772 15 2H17C17 0.343146 15.6569 -1 14 -1V1ZM2 -1C0.343146 -1 -1 0.343146 -1 2H1C1 1.44772 1.44772 1 2 1V-1Z" fill="#7550CC"></path>
  </symbol>
  <symbol fill="none" xmlns="http://www.w3.org/2000/svg" viewBox="0 0 24 24" id="clock">
    <path d="M12 1.5C6.20156 1.5 1.5 6.20156 1.5 12C1.5 17.7984 6.20156 22.5 12 22.5C17.7984 22.5 22.5 17.7984 22.5 12C22.5 6.20156 17.7984 1.5 12 1.5ZM12 20.7188C7.18594 20.7188 3.28125 16.8141 3.28125 12C3.28125 7.18594 7.18594 3.28125 12 3.28125C16.8141 3.28125 20.7188 7.18594 20.7188 12C20.7188 16.8141 16.8141 20.7188 12 20.7188Z" fill="#7550CC"></path>
    <path d="M16.0945 14.9672L12.7523 12.5508V6.75C12.7523 6.64687 12.668 6.5625 12.5648 6.5625H11.4375C11.3344 6.5625 11.25 6.64687 11.25 6.75V13.2047C11.25 13.2656 11.2781 13.3219 11.3273 13.357L15.2039 16.1836C15.2883 16.2445 15.4055 16.2258 15.4664 16.1437L16.1367 15.2297C16.1977 15.143 16.1789 15.0258 16.0945 14.9672V14.9672Z" fill="#7550CC"></path>
  </symbol>
  <symbol fill="none" xmlns="http://www.w3.org/2000/svg" viewBox="0 0 24 24" id="close_circle">
    <circle cx="12" cy="12" r="8" fill="#7550CC"></circle>
    <path fill-rule="evenodd" clip-rule="evenodd" d="M8.22479 14.6975C7.92684 14.9954 7.92684 15.4785 8.2248 15.7765C8.52275 16.0744 9.00584 16.0744 9.3038 15.7765L12.0004 13.0799L14.6971 15.7766C14.9951 16.0745 15.4782 16.0745 15.7761 15.7766C16.0741 15.4786 16.0741 14.9955 15.7761 14.6976L13.0794 12.0009L15.7778 9.30247C16.0758 9.00451 16.0758 8.52143 15.7778 8.22347C15.4799 7.92551 14.9968 7.92551 14.6988 8.22347L12.0004 10.9219L9.30211 8.22357C9.00415 7.92561 8.52106 7.92561 8.2231 8.22357C7.92514 8.52152 7.92514 9.00461 8.2231 9.30257L10.9214 12.0009L8.22479 14.6975Z" fill="white"></path>
  </symbol>
  <symbol fill="none" xmlns="http://www.w3.org/2000/svg" viewBox="0 0 30 30" id="command">
    <path d="M7.5 2.5C8.82608 2.5 10.0979 3.02678 11.0355 3.96447C11.9732 4.90215 12.5 6.17392 12.5 7.5V10H17.5V7.5C17.5 6.17392 18.0268 4.90215 18.9645 3.96447C19.9021 3.02678 21.1739 2.5 22.5 2.5C23.8261 2.5 25.0979 3.02678 26.0355 3.96447C26.9732 4.90215 27.5 6.17392 27.5 7.5C27.5 8.82608 26.9732 10.0979 26.0355 11.0355C25.0979 11.9732 23.8261 12.5 22.5 12.5H20V17.5H22.5C23.8261 17.5 25.0979 18.0268 26.0355 18.9645C26.9732 19.9021 27.5 21.1739 27.5 22.5C27.5 23.8261 26.9732 25.0979 26.0355 26.0355C25.0979 26.9732 23.8261 27.5 22.5 27.5C21.1739 27.5 19.9021 26.9732 18.9645 26.0355C18.0268 25.0979 17.5 23.8261 17.5 22.5V20H12.5V22.5C12.5 23.8261 11.9732 25.0979 11.0355 26.0355C10.0979 26.9732 8.82608 27.5 7.5 27.5C6.17392 27.5 4.90215 26.9732 3.96447 26.0355C3.02678 25.0979 2.5 23.8261 2.5 22.5C2.5 21.1739 3.02678 19.9021 3.96447 18.9645C4.90215 18.0268 6.17392 17.5 7.5 17.5H10V12.5H7.5C6.17392 12.5 4.90215 11.9732 3.96447 11.0355C3.02678 10.0979 2.5 8.82608 2.5 7.5C2.5 6.17392 3.02678 4.90215 3.96447 3.96447C4.90215 3.02678 6.17392 2.5 7.5 2.5ZM20 22.5C20 23.163 20.2634 23.7989 20.7322 24.2678C21.2011 24.7366 21.837 25 22.5 25C23.163 25 23.7989 24.7366 24.2678 24.2678C24.7366 23.7989 25 23.163 25 22.5C25 21.837 24.7366 21.2011 24.2678 20.7322C23.7989 20.2634 23.163 20 22.5 20H20V22.5ZM17.5 12.5H12.5V17.5H17.5V12.5ZM7.5 20C6.83696 20 6.20107 20.2634 5.73223 20.7322C5.26339 21.2011 5 21.837 5 22.5C5 23.163 5.26339 23.7989 5.73223 24.2678C6.20107 24.7366 6.83696 25 7.5 25C8.16304 25 8.79893 24.7366 9.26777 24.2678C9.73661 23.7989 10 23.163 10 22.5V20H7.5ZM10 7.5C10 6.83696 9.73661 6.20107 9.26777 5.73223C8.79893 5.26339 8.16304 5 7.5 5C6.83696 5 6.20107 5.26339 5.73223 5.73223C5.26339 6.20107 5 6.83696 5 7.5C5 8.16304 5.26339 8.79893 5.73223 9.26777C6.20107 9.73661 6.83696 10 7.5 10H10V7.5ZM22.5 10C23.163 10 23.7989 9.73661 24.2678 9.26777C24.7366 8.79893 25 8.16304 25 7.5C25 6.83696 24.7366 6.20107 24.2678 5.73223C23.7989 5.26339 23.163 5 22.5 5C21.837 5 21.2011 5.26339 20.7322 5.73223C20.2634 6.20107 20 6.83696 20 7.5V10H22.5Z" fill="#545963"></path>
  </symbol>
  <symbol fill="none" xmlns="http://www.w3.org/2000/svg" viewBox="0 0 32 32" id="Keyboard-delete">
    <path fill-rule="evenodd" clip-rule="evenodd" d="M10.5858 7H11H27H28V8V24V25H27H11H10.5858L10.2929 24.7071L2.29292 16.7071L1.58582 16L2.29292 15.2929L10.2929 7.29289L10.5858 7ZM11.4142 9L4.41424 16L11.4142 23H26V9H11.4142ZM15 11.5858L15.7071 12.2929L18 14.5858L20.2929 12.2929L21 11.5858L22.4142 13L21.7071 13.7071L19.4142 16L21.7071 18.2929L22.4142 19L21 20.4142L20.2929 19.7071L18 17.4142L15.7071 19.7071L15 20.4142L13.5858 19L14.2929 18.2929L16.5858 16L14.2929 13.7071L13.5858 13L15 11.5858Z" fill="white"></path>
  </symbol>
  <symbol fill="none" xmlns="http://www.w3.org/2000/svg" viewBox="0 0 30 30" id="keyboard">
    <path d="M26.25 24.375H3.75C3.25272 24.375 2.77581 24.1775 2.42417 23.8258C2.07254 23.4742 1.875 22.9973 1.875 22.5V9.375C1.875 8.87772 2.07254 8.40081 2.42417 8.04918C2.77581 7.69754 3.25272 7.5 3.75 7.5H26.25C26.7473 7.5 27.2242 7.69754 27.5758 8.04918C27.9275 8.40081 28.125 8.87772 28.125 9.375V22.5C28.125 22.9973 27.9275 23.4742 27.5758 23.8258C27.2242 24.1775 26.7473 24.375 26.25 24.375ZM3.75 9.375V22.5H26.25V9.375H3.75Z" fill="#545963"></path>
    <path d="M9.375 18.75H19.6875V20.625H9.375V18.75Z" fill="#545963"></path>
    <path d="M5.625 11.25H7.5V13.125H5.625V11.25Z" fill="#545963"></path>
    <path d="M9.375 11.25H11.25V13.125H9.375V11.25Z" fill="#545963"></path>
    <path d="M13.125 11.25H15V13.125H13.125V11.25Z" fill="#545963"></path>
    <path d="M16.875 11.25H18.75V13.125H16.875V11.25Z" fill="#545963"></path>
    <path d="M5.625 18.75H7.5V20.625H5.625V18.75Z" fill="#545963"></path>
    <path d="M5.625 15H7.5V16.875H5.625V15Z" fill="#545963"></path>
    <path d="M9.375 15H11.25V16.875H9.375V15Z" fill="#545963"></path>
    <path d="M13.125 15H15V16.875H13.125V15Z" fill="#545963"></path>
    <path d="M20.625 11.25H24.375V13.125H20.625V11.25Z" fill="#545963"></path>
    <path d="M20.625 15H24.375V16.875H20.625V15Z" fill="#545963"></path>
    <path d="M16.875 15H18.75V16.875H16.875V15Z" fill="#545963"></path>
    <path d="M21.5625 18.75H24.375V20.625H21.5625V18.75Z" fill="#545963"></path>
  </symbol>
  <symbol xmlns="http://www.w3.org/2000/svg" viewBox="0 0 16 16" id="location">
    <path d="M7.93488 0C11.5718 0 14.5198 2.94801 14.5198 6.58491C14.5198 9.36745 12.5646 12.3999 8.70481 15.7146C8.49019 15.899 8.21655 16.0002 7.93362 16C7.65068 15.9998 7.37722 15.898 7.16293 15.7133L6.90764 15.4917C3.21874 12.2635 1.34998 9.30532 1.34998 6.58491C1.34998 2.94801 4.29799 0 7.93488 0ZM7.93488 4.05225C7.26318 4.05225 6.61899 4.31908 6.14402 4.79405C5.66906 5.26901 5.40222 5.9132 5.40222 6.58491C5.40222 7.25661 5.66906 7.9008 6.14402 8.37576C6.61899 8.85073 7.26318 9.11756 7.93488 9.11756C8.60658 9.11756 9.25077 8.85073 9.72574 8.37576C10.2007 7.9008 10.4675 7.25661 10.4675 6.58491C10.4675 5.9132 10.2007 5.26901 9.72574 4.79405C9.25077 4.31908 8.60658 4.05225 7.93488 4.05225Z"></path>
  </symbol>
  <symbol fill="none" xmlns="http://www.w3.org/2000/svg" viewBox="0 0 16 16" id="Logo-KaohsiungMetro">
    <g clip-path="url(#clip0_752_55288)">
      <path fill-rule="evenodd" clip-rule="evenodd" d="M9.67677 7.95201L10.3124 11.2063H7.76111L7.35384 9.129L7.35525 9.12971L8.22097 8.63703H3.01538L3.10149 8.46587H4.77222L6.44083 5.21158H8.6113L7.94816 6.50962L5.97145 7.78085H12.2542L12.1684 7.95201H9.67677ZM13.0278 5.29699L10.209 7.18264H7.59594L10.4158 5.29699H13.0278ZM6.57989 9.189L5.55006 11.2063H3.3796L4.40977 9.189H6.57989Z" fill="#005296"></path>
      <path fill-rule="evenodd" clip-rule="evenodd" d="M15.9998 8.02781C15.96 8.10863 15.918 8.1898 15.8731 8.27133C14.237 11.2496 9.90031 13.6724 6.21969 13.665C2.73283 13.658 1.05257 11.472 2.27615 8.71001C1.34726 10.9931 2.78294 12.7894 5.65925 12.7894C8.59485 12.7894 12.4096 10.8374 13.6861 8.02781H15.9998Z" fill="#0094DE"></path>
      <path fill-rule="evenodd" clip-rule="evenodd" d="M0 8.63721C1.64179 5.31481 6.23365 2.99294 9.78015 3C13.267 3.00706 14.9469 5.19305 13.7237 7.95501C14.6526 5.67196 13.2169 3.87595 10.3406 3.87595C7.40499 3.87595 3.59027 5.8276 2.31375 8.63721H0Z" fill="#0094DE"></path>
    </g>
    <defs>
      <clipPath id="clip0_752_55288">
        <rect width="16" height="10.665" fill="white" transform="translate(0 3)"></rect>
      </clipPath>
    </defs>
  </symbol>
  <symbol fill="none" xmlns="http://www.w3.org/2000/svg" viewBox="0 0 16 16" id="manwalking">
    <path d="M10.4167 2.66659C10.4167 3.02021 10.2762 3.35935 10.0261 3.60939C9.77609 3.85944 9.43696 3.99992 9.08333 3.99992C8.72971 3.99992 8.39057 3.85944 8.14052 3.60939C7.89048 3.35935 7.75 3.02021 7.75 2.66659C7.75 2.31296 7.89048 1.97382 8.14052 1.72378C8.39057 1.47373 8.72971 1.33325 9.08333 1.33325C9.43696 1.33325 9.77609 1.47373 10.0261 1.72378C10.2762 1.97382 10.4167 2.31296 10.4167 2.66659Z" fill="#A6AAB4"></path>
    <path d="M8.5643 9.46564L10.2953 11.1736C10.3617 11.2391 10.4136 11.3178 10.4476 11.4046L11.3706 13.7563C11.4353 13.9209 11.4318 14.1045 11.3611 14.2666C11.2904 14.4286 11.1582 14.556 10.9936 14.6206C10.829 14.6853 10.6455 14.6819 10.4834 14.6111C10.3213 14.5404 10.1939 14.4083 10.1293 14.2436L9.25797 12.0233L6.28197 9.08664C6.21005 9.01573 6.15519 8.9294 6.12153 8.83418C6.08786 8.73896 6.07627 8.63733 6.08763 8.53697L6.32597 6.43031C5.7513 7.00164 5.30797 7.80464 4.9683 8.86897C4.9429 8.95382 4.90086 9.03275 4.84462 9.10117C4.78837 9.16958 4.71907 9.2261 4.64074 9.26743C4.56241 9.30876 4.47663 9.33407 4.38841 9.34188C4.30019 9.34968 4.2113 9.33984 4.12693 9.31291C4.04256 9.28598 3.9644 9.24251 3.89702 9.18504C3.82963 9.12757 3.77437 9.05725 3.73447 8.97819C3.69457 8.89912 3.67082 8.8129 3.6646 8.72455C3.65839 8.63621 3.66985 8.54751 3.6983 8.46364C4.32163 6.51031 5.35663 5.04831 7.0933 4.37797L7.10097 4.37497C7.5433 4.21064 8.0033 4.22397 8.4133 4.43564C8.80697 4.63931 9.0873 4.99097 9.27097 5.38497C9.3483 5.55097 9.41963 5.70597 9.48697 5.85164C9.64963 6.20431 9.7863 6.50164 9.91797 6.76231C10.1023 7.12897 10.2506 7.37231 10.3973 7.54264C10.5333 7.70097 10.6683 7.79831 10.8406 7.86564C11.026 7.93797 11.2856 7.98797 11.6866 7.99997C11.7747 8.00174 11.8616 8.02095 11.9422 8.05649C12.0228 8.09203 12.0956 8.1432 12.1563 8.20704C12.2171 8.27088 12.2645 8.34612 12.296 8.42842C12.3275 8.51072 12.3423 8.59844 12.3397 8.68651C12.337 8.77458 12.3169 8.86125 12.2806 8.94151C12.2442 9.02177 12.1924 9.09404 12.1279 9.15412C12.0635 9.2142 11.9878 9.26092 11.9051 9.29156C11.8225 9.3222 11.7347 9.33616 11.6466 9.33264C11.165 9.31831 10.7373 9.25664 10.3556 9.10764C9.9613 8.95364 9.6503 8.71931 9.38563 8.41097C9.21897 8.21697 9.0723 7.99531 8.93563 7.75431L8.5643 9.46564Z" fill="#A6AAB4"></path>
    <path d="M6.08764 10.0732L7.19264 11.1332L6.68397 12.8489C6.64463 12.9817 6.56495 13.0989 6.45597 13.1842L4.74464 14.5252C4.67569 14.5792 4.59679 14.6191 4.51243 14.6426C4.42807 14.6661 4.33991 14.6728 4.25298 14.6622C4.16605 14.6516 4.08205 14.6241 4.00578 14.581C3.92951 14.538 3.86247 14.4804 3.80847 14.4114C3.75448 14.3425 3.71459 14.2636 3.69109 14.1792C3.66759 14.0948 3.66093 14.0067 3.6715 13.9197C3.68207 13.8328 3.70966 13.7488 3.75269 13.6726C3.79573 13.5963 3.85336 13.5292 3.92231 13.4752L5.4663 12.2659L5.9313 10.6959L6.08764 10.0732Z" fill="#A6AAB4"></path>
  </symbol>
  <symbol fill="none" xmlns="http://www.w3.org/2000/svg" viewBox="0 0 24 24" id="moreInfo">
    <path d="M7.5 13.5C7.89782 13.5 8.27936 13.342 8.56066 13.0607C8.84196 12.7794 9 12.3978 9 12C9 11.6022 8.84196 11.2206 8.56066 10.9393C8.27936 10.658 7.89782 10.5 7.5 10.5C7.10218 10.5 6.72064 10.658 6.43934 10.9393C6.15804 11.2206 6 11.6022 6 12C6 12.3978 6.15804 12.7794 6.43934 13.0607C6.72064 13.342 7.10218 13.5 7.5 13.5ZM12 13.5C12.3978 13.5 12.7794 13.342 13.0607 13.0607C13.342 12.7794 13.5 12.3978 13.5 12C13.5 11.6022 13.342 11.2206 13.0607 10.9393C12.7794 10.658 12.3978 10.5 12 10.5C11.6022 10.5 11.2206 10.658 10.9393 10.9393C10.658 11.2206 10.5 11.6022 10.5 12C10.5 12.3978 10.658 12.7794 10.9393 13.0607C11.2206 13.342 11.6022 13.5 12 13.5ZM18 12C18 12.3978 17.842 12.7794 17.5607 13.0607C17.2794 13.342 16.8978 13.5 16.5 13.5C16.1022 13.5 15.7206 13.342 15.4393 13.0607C15.158 12.7794 15 12.3978 15 12C15 11.6022 15.158 11.2206 15.4393 10.9393C15.7206 10.658 16.1022 10.5 16.5 10.5C16.8978 10.5 17.2794 10.658 17.5607 10.9393C17.842 11.2206 18 11.6022 18 12ZM22.5 12C22.5 17.799 17.799 22.5 12 22.5C6.201 22.5 1.5 17.799 1.5 12C1.5 6.201 6.201 1.5 12 1.5C17.799 1.5 22.5 6.201 22.5 12ZM21 12C21 7.02975 16.9702 3 12 3C7.02975 3 3 7.02975 3 12C3 16.9702 7.02975 21 12 21C16.9702 21 21 16.9702 21 12Z" fill="#7550CC"></path>
  </symbol>
  <symbol fill="none" xmlns="http://www.w3.org/2000/svg" viewBox="0 0 13 13" id="Point-stop">
    <circle cx="6.5" cy="6.5" r="5" fill="white" stroke="#545963" stroke-width="3"></circle>
  </symbol>
  <symbol fill="none" xmlns="http://www.w3.org/2000/svg" viewBox="0 0 17 17" id="positioning">
    <path fill-rule="evenodd" clip-rule="evenodd" d="M1.47021 7.86395L15.9608 1L9.09683 15.4906L7.57151 9.38928L1.47021 7.86395Z" fill="#606470" stroke="#606470" stroke-width="1.5" stroke-linecap="round" stroke-linejoin="round"></path>
  </symbol>
  <symbol fill="none" xmlns="http://www.w3.org/2000/svg" viewBox="0 0 16 16" id="Refresh">
    <path d="M15.3334 2.66675V6.66675H11.3334" stroke="#545963" stroke-linecap="round" stroke-linejoin="round"></path>
    <path d="M0.666626 13.3333V9.33325H4.66663" stroke="#545963" stroke-linecap="round" stroke-linejoin="round"></path>
    <path d="M2.33996 5.99989C2.67807 5.04441 3.25271 4.19016 4.01027 3.51683C4.76783 2.84351 5.6836 2.37306 6.67215 2.14939C7.6607 1.92572 8.6898 1.95612 9.66342 2.23774C10.637 2.51936 11.5235 3.04303 12.24 3.75989L15.3333 6.66655M0.666626 9.33322L3.75996 12.2399C4.47646 12.9567 5.36287 13.4804 6.3365 13.762C7.31012 14.0437 8.33922 14.0741 9.32777 13.8504C10.3163 13.6267 11.2321 13.1563 11.9896 12.4829C12.7472 11.8096 13.3218 10.9554 13.66 9.99989" stroke="#545963" stroke-linecap="round" stroke-linejoin="round"></path>
  </symbol>
  <symbol fill="none" xmlns="http://www.w3.org/2000/svg" viewBox="0 0 16 16" id="sort">
    <path d="M5.33551 2.66943L5.25751 2.6741C5.09534 2.69321 4.94582 2.77116 4.83732 2.89319C4.72881 3.01521 4.66886 3.17281 4.66884 3.3361V11.0561L3.14017 9.52943L3.07751 9.47343C2.94356 9.36862 2.77461 9.31896 2.60526 9.33463C2.4359 9.3503 2.27893 9.43011 2.16648 9.55771C2.05404 9.68532 1.99462 9.85108 2.00038 10.0211C2.00615 10.1911 2.07667 10.3524 2.19751 10.4721L4.86684 13.1388L4.92951 13.1941C5.05785 13.2935 5.21807 13.3427 5.38009 13.3324C5.54211 13.3221 5.6948 13.253 5.80951 13.1381L8.47351 10.4714L8.52951 10.4088C8.62892 10.2804 8.67809 10.1202 8.66778 9.95819C8.65747 9.79617 8.58839 9.64348 8.47351 9.52877L8.41017 9.47343C8.28183 9.37402 8.12161 9.32485 7.95959 9.33516C7.79757 9.34547 7.64488 9.41455 7.53017 9.52943L6.00217 11.0588V3.3361L5.99751 3.2581C5.9784 3.09593 5.90044 2.94642 5.77842 2.83791C5.6564 2.7294 5.49879 2.66946 5.33551 2.66943ZM8.33551 3.33343C8.1587 3.33343 7.98913 3.40367 7.8641 3.5287C7.73908 3.65372 7.66884 3.82329 7.66884 4.0001C7.66884 4.17691 7.73908 4.34648 7.8641 4.4715C7.98913 4.59653 8.1587 4.66677 8.33551 4.66677H13.6688C13.8457 4.66677 14.0152 4.59653 14.1402 4.4715C14.2653 4.34648 14.3355 4.17691 14.3355 4.0001C14.3355 3.82329 14.2653 3.65372 14.1402 3.5287C14.0152 3.40367 13.8457 3.33343 13.6688 3.33343H8.33551ZM8.33551 5.33343C8.1587 5.33343 7.98913 5.40367 7.8641 5.5287C7.73908 5.65372 7.66884 5.82329 7.66884 6.0001C7.66884 6.17691 7.73908 6.34648 7.8641 6.4715C7.98913 6.59653 8.1587 6.66677 8.33551 6.66677H11.6688C11.8457 6.66677 12.0152 6.59653 12.1402 6.4715C12.2653 6.34648 12.3355 6.17691 12.3355 6.0001C12.3355 5.82329 12.2653 5.65372 12.1402 5.5287C12.0152 5.40367 11.8457 5.33343 11.6688 5.33343H8.33551ZM7.66884 8.0001C7.66884 7.82329 7.73908 7.65372 7.8641 7.5287C7.98913 7.40367 8.1587 7.33343 8.33551 7.33343H9.66884C9.84565 7.33343 10.0152 7.40367 10.1402 7.5287C10.2653 7.65372 10.3355 7.82329 10.3355 8.0001C10.3355 8.17691 10.2653 8.34648 10.1402 8.4715C10.0152 8.59653 9.84565 8.66677 9.66884 8.66677H8.33551C8.1587 8.66677 7.98913 8.59653 7.8641 8.4715C7.73908 8.34648 7.66884 8.17691 7.66884 8.0001Z" fill="#7550CC"></path>
  </symbol>
  <symbol fill="none" xmlns="http://www.w3.org/2000/svg" viewBox="0 0 24 24" id="search">
    <path d="M11 19C15.4183 19 19 15.4183 19 11C19 6.58172 15.4183 3 11 3C6.58172 3 3 6.58172 3 11C3 15.4183 6.58172 19 11 19Z" stroke="#7550CC" stroke-width="2" stroke-linecap="round" stroke-linejoin="round"></path>
    <path d="M21 20.9999L16.65 16.6499" stroke="#7550CC" stroke-width="2" stroke-linecap="round" stroke-linejoin="round"></path>
  </symbol>
  <symbol fill="none" xmlns="http://www.w3.org/2000/svg" viewBox="0 0 24 24" id="StartingPoint">
    <circle cx="12" cy="12.5" r="6.5" stroke="#A6AAB4" stroke-width="2"></circle>
    <circle cx="12" cy="12.5" r="1.5" fill="#A6AAB4"></circle>
  </symbol>
  <symbol fill="none" xmlns="http://www.w3.org/2000/svg" viewBox="0 0 24 25" id="Switch">
    <path d="M6.46808 1V18.7128M6.46808 1L10.9362 5.46808M6.46808 1L2 5.46808" stroke="#7550CC" stroke-width="1.33" stroke-linecap="round" stroke-linejoin="round"></path>
    <path d="M17.4787 23.4998V6.98389M17.4787 23.4998L21.9468 19.0318M17.4787 23.4998L13.0106 19.0318" stroke="#7550CC" stroke-width="1.33" stroke-linecap="round" stroke-linejoin="round"></path>
  </symbol>
</svg>